<svg viewBox="0 0 330 200" xmlns="http://www.w3.org/2000/svg"><g><g><g><g><g><line x1="55.625" y1="176" x2="50.625" y2="176" style="visibility: inherit;" fill="rgb(0, 0, 0)" stroke="rgb(204, 204, 204)" stroke-width="1px"></line><line x1="55.625" y1="161.33333333333331" x2="50.625" y2="161.33333333333331" style="visibility: inherit;" fill="rgb(0, 0, 0)" stroke="rgb(204, 204, 204)" stroke-width="1px"></line><line x1="55.625" y1="146.66666666666663" x2="50.625" y2="146.66666666666663" style="visibility: inherit;" fill="rgb(0, 0, 0)" stroke="rgb(204, 204, 204)" stroke-width="1px"></line><line x1="55.625" y1="131.99999999999991" x2="50.625" y2="131.99999999999991" style="visibility: inherit;" fill="rgb(0, 0, 0)" stroke="rgb(204, 204, 204)" stroke-width="1px"></line><line x1="55.625" y1="117.33333333333323" x2="50.625" y2="117.33333333333323" style="visibility: inherit;" fill="rgb(0, 0, 0)" stroke="rgb(204, 204, 204)" stroke-width="1px"></line><line x1="55.625" y1="102.66666666666654" x2="50.625" y2="102.66666666666654" style="visibility: inherit;" fill="rgb(0, 0, 0)" stroke="rgb(204, 204, 204)" stroke-width="1px"></line><line x1="55.625" y1="87.99999999999984" x2="50.625" y2="87.99999999999984" style="visibility: inherit;" fill="rgb(0, 0, 0)" stroke="rgb(204, 204, 204)" stroke-width="1px"></line><line x1="55.625" y1="73.33333333333314" x2="50.625" y2="73.33333333333314" style="visibility: inherit;" fill="rgb(0, 0, 0)" stroke="rgb(204, 204, 204)" stroke-width="1px"></line><line x1="55.625" y1="58.66666666666646" x2="50.625" y2="58.66666666666646" style="visibility: inherit;" fill="rgb(0, 0, 0)" stroke="rgb(204, 204, 204)" stroke-width="1px"></line><line x1="55.625" y1="43.999999999999744" x2="50.625" y2="43.999999999999744" style="visibility: inherit;" fill="rgb(0, 0, 0)" stroke="rgb(204, 204, 204)" stroke-width="1px"></line><line x1="55.625" y1="29.33333333333305" x2="50.625" y2="29.33333333333305" style="visibility: inherit;" fill="rgb(0, 0, 0)" stroke="rgb(204, 204, 204)" stroke-width="1px"></line><line x1="55.625" y1="14.66666666666636" x2="50.625" y2="14.66666666666636" style="visibility: inherit;" fill="rgb(0, 0, 0)" stroke="rgb(204, 204, 204)" stroke-width="1px"></line></g><g transform="translate(45.625, 0)"><text x="0" y="176" dx="0em" dy="0.3em" style="text-anchor: end; visibility: hidden; font-family: Roboto, sans-serif; font-size: 12px; font-weight: 200;" fill="rgb(255, 255, 255)" stroke="none" stroke-width="1px">0.945</text><text x="0" y="161.33333333333331" dx="0em" dy="0.3em" style="text-anchor: end; visibility: inherit; font-family: Roboto, sans-serif; font-size: 12px; font-weight: 200;" fill="rgb(255, 255, 255)" stroke="none" stroke-width="1px">0.95</text><text x="0" y="146.66666666666663" dx="0em" dy="0.3em" style="text-anchor: end; visibility: hidden; font-family: Roboto, sans-serif; font-size: 12px; font-weight: 200;" fill="rgb(255, 255, 255)" stroke="none" stroke-width="1px">0.955</text><text x="0" y="131.99999999999991" dx="0em" dy="0.3em" style="text-anchor: end; visibility: inherit; font-family: Roboto, sans-serif; font-size: 12px; font-weight: 200;" fill="rgb(255, 255, 255)" stroke="none" stroke-width="1px">0.96</text><text x="0" y="117.33333333333323" dx="0em" dy="0.3em" style="text-anchor: end; visibility: hidden; font-family: Roboto, sans-serif; font-size: 12px; font-weight: 200;" fill="rgb(255, 255, 255)" stroke="none" stroke-width="1px">0.965</text><text x="0" y="102.66666666666654" dx="0em" dy="0.3em" style="text-anchor: end; visibility: inherit; font-family: Roboto, sans-serif; font-size: 12px; font-weight: 200;" fill="rgb(255, 255, 255)" stroke="none" stroke-width="1px">0.97</text><text x="0" y="87.99999999999984" dx="0em" dy="0.3em" style="text-anchor: end; visibility: hidden; font-family: Roboto, sans-serif; font-size: 12px; font-weight: 200;" fill="rgb(255, 255, 255)" stroke="none" stroke-width="1px">0.975</text><text x="0" y="73.33333333333314" dx="0em" dy="0.3em" style="text-anchor: end; visibility: inherit; font-family: Roboto, sans-serif; font-size: 12px; font-weight: 200;" fill="rgb(255, 255, 255)" stroke="none" stroke-width="1px">0.98</text><text x="0" y="58.66666666666646" dx="0em" dy="0.3em" style="text-anchor: end; visibility: hidden; font-family: Roboto, sans-serif; font-size: 12px; font-weight: 200;" fill="rgb(255, 255, 255)" stroke="none" stroke-width="1px">0.985</text><text x="0" y="43.999999999999744" dx="0em" dy="0.3em" style="text-anchor: end; visibility: inherit; font-family: Roboto, sans-serif; font-size: 12px; font-weight: 200;" fill="rgb(255, 255, 255)" stroke="none" stroke-width="1px">0.99</text><text x="0" y="29.33333333333305" dx="0em" dy="0.3em" style="text-anchor: end; visibility: hidden; font-family: Roboto, sans-serif; font-size: 12px; font-weight: 200;" fill="rgb(255, 255, 255)" stroke="none" stroke-width="1px">0.995</text><text x="0" y="14.66666666666636" dx="0em" dy="0.3em" style="text-anchor: end; visibility: inherit; font-family: Roboto, sans-serif; font-size: 12px; font-weight: 200;" fill="rgb(255, 255, 255)" stroke="none" stroke-width="1px">1</text></g><line x1="55.625" y1="0" x2="55.625" y2="176" fill="rgb(0, 0, 0)" stroke="rgb(204, 204, 204)" stroke-width="1px"></line></g></g><g transform="translate(55, 0)" clip-path="url(#clip_0)"><clipPath id="clip_0"><rect width="274" height="176"></rect></clipPath><g><g><g><line x1="0" y1="0" x2="0" y2="176" fill="rgb(0, 0, 0)" stroke="rgb(189, 189, 189)" stroke-width="1px" opacity="0.25"></line><line x1="27.4375" y1="0" x2="27.4375" y2="176" fill="rgb(0, 0, 0)" stroke="rgb(189, 189, 189)" stroke-width="1px" opacity="0.25"></line><line x1="54.875" y1="0" x2="54.875" y2="176" fill="rgb(0, 0, 0)" stroke="rgb(189, 189, 189)" stroke-width="1px" opacity="0.25"></line><line x1="82.3125" y1="0" x2="82.3125" y2="176" fill="rgb(0, 0, 0)" stroke="rgb(189, 189, 189)" stroke-width="1px" opacity="0.25"></line><line x1="109.75" y1="0" x2="109.75" y2="176" fill="rgb(0, 0, 0)" stroke="rgb(189, 189, 189)" stroke-width="1px" opacity="0.25"></line><line x1="137.1875" y1="0" x2="137.1875" y2="176" fill="rgb(0, 0, 0)" stroke="rgb(189, 189, 189)" stroke-width="1px" opacity="0.25"></line><line x1="164.625" y1="0" x2="164.625" y2="176" fill="rgb(0, 0, 0)" stroke="rgb(189, 189, 189)" stroke-width="1px" opacity="0.25"></line><line x1="192.0625" y1="0" x2="192.0625" y2="176" fill="rgb(0, 0, 0)" stroke="rgb(189, 189, 189)" stroke-width="1px" opacity="0.25"></line><line x1="219.5" y1="0" x2="219.5" y2="176" fill="rgb(0, 0, 0)" stroke="rgb(189, 189, 189)" stroke-width="1px" opacity="0.25"></line><line x1="246.9375" y1="0" x2="246.9375" y2="176" fill="rgb(0, 0, 0)" stroke="rgb(189, 189, 189)" stroke-width="1px" opacity="0.25"></line><line x1="274.375" y1="0" x2="274.375" y2="176" fill="rgb(0, 0, 0)" stroke="rgb(189, 189, 189)" stroke-width="1px" opacity="0.25"></line></g><g><line x1="0" y1="176" x2="274.375" y2="176" fill="rgb(0, 0, 0)" stroke="rgb(189, 189, 189)" stroke-width="1px" opacity="0.25"></line><line x1="0" y1="161.33333333333331" x2="274.375" y2="161.33333333333331" fill="rgb(0, 0, 0)" stroke="rgb(189, 189, 189)" stroke-width="1px" opacity="0.25"></line><line x1="0" y1="146.66666666666663" x2="274.375" y2="146.66666666666663" fill="rgb(0, 0, 0)" stroke="rgb(189, 189, 189)" stroke-width="1px" opacity="0.25"></line><line x1="0" y1="131.99999999999991" x2="274.375" y2="131.99999999999991" fill="rgb(0, 0, 0)" stroke="rgb(189, 189, 189)" stroke-width="1px" opacity="0.25"></line><line x1="0" y1="117.33333333333323" x2="274.375" y2="117.33333333333323" fill="rgb(0, 0, 0)" stroke="rgb(189, 189, 189)" stroke-width="1px" opacity="0.25"></line><line x1="0" y1="102.66666666666654" x2="274.375" y2="102.66666666666654" fill="rgb(0, 0, 0)" stroke="rgb(189, 189, 189)" stroke-width="1px" opacity="0.25"></line><line x1="0" y1="87.99999999999984" x2="274.375" y2="87.99999999999984" fill="rgb(0, 0, 0)" stroke="rgb(189, 189, 189)" stroke-width="1px" opacity="0.25"></line><line x1="0" y1="73.33333333333314" x2="274.375" y2="73.33333333333314" fill="rgb(0, 0, 0)" stroke="rgb(189, 189, 189)" stroke-width="1px" opacity="0.25"></line><line x1="0" y1="58.66666666666646" x2="274.375" y2="58.66666666666646" fill="rgb(0, 0, 0)" stroke="rgb(189, 189, 189)" stroke-width="1px" opacity="0.25"></line><line x1="0" y1="43.999999999999744" x2="274.375" y2="43.999999999999744" fill="rgb(0, 0, 0)" stroke="rgb(189, 189, 189)" stroke-width="1px" opacity="0.25"></line><line x1="0" y1="29.33333333333305" x2="274.375" y2="29.33333333333305" fill="rgb(0, 0, 0)" stroke="rgb(189, 189, 189)" stroke-width="1px" opacity="0.25"></line><line x1="0" y1="14.66666666666636" x2="274.375" y2="14.66666666666636" fill="rgb(0, 0, 0)" stroke="rgb(189, 189, 189)" stroke-width="1px" opacity="0.25"></line></g></g></g><g><g><line x1="0" y1="2948.0000000000027" x2="274.375" y2="2948.0000000000027" fill="rgb(0, 0, 0)" stroke="rgb(153, 153, 153)" stroke-width="1.5px"></line></g></g><g><g><line x1="27.4375" y1="0" x2="27.4375" y2="176" fill="rgb(0, 0, 0)" stroke="rgb(153, 153, 153)" stroke-width="1.5px"></line></g></g><g><g><g><g><g><path stroke="rgb(255, 112, 67)" stroke-width="2px" d="M36.17634375,192.81091799778497L36.258656249999994,174.8024468397543L36.272375000000004,186.40135195721757L36.587906249999996,178.45937620448734L36.69765625,161.96348506583132L37.32871875,156.36484752299788L37.918625,160.55234211045953L38.069531250000004,173.53066190889032L38.1655625,185.19838191012937L38.247875,177.278816367407L38.467375,160.95627594601174L39.19446875,164.67321678510694L39.317937500000006,149.62677163811028L39.592312500000006,145.28553748223655L40.3605625,150.57001014251804L41.14253125,155.3235550160424L41.36203125,141.2297253398903L41.458062500000004,137.73380393245776L41.5129375,134.5886702186349L41.663843750000005,131.7590177492524L41.924499999999995,129.21311412169533L42.130281249999996,117.74494819689016L42.212593749999996,107.42617061756314L42.500687500000005,116.49221166989585L42.65159375,115.4754499249894L42.67903125,123.73429359412994L42.87109375,131.16603820497858L42.967124999999996,128.68121077775518L43.22778125,126.44516207877773L43.241499999999995,133.6042793289874L43.406125,149.2176498742548L43.5433125,144.92745452807736L43.57075,141.06661394204383L43.6805,128.42240882524018L44.1469375,126.2128390886082L44.24296875,124.22435217519812L44.613375,122.43481588206956L44.6408125,111.65564598677008L44.681968749999996,111.12331004978127L44.73684375,110.64422759762428L44.81915625,101.04494264646829L44.87403125,92.40587671510369L45.2444375,84.6309526905754L45.614843750000006,86.80144276243826L45.889218750000005,79.58721129686502L46.30078125,91.42960389812048L46.3145,111.25498822519963L46.87696875,129.09751526573854L47.17878125,117.65364581856824L47.42571875,116.52154471527213L47.4394375,115.50266699544966L47.9333125,114.5856877986566L48.043062500000005,113.76041522974506L48.152812499999996,131.3517525370209L48.19396875,119.68281878784005L48.674125000000004,118.34782646552057L48.715281250000004,117.146341693284L48.907343749999995,106.89810198303954L48.9485,97.67473796449623L49.01709375,89.37375224122115L49.181718749999995,100.23658735699738L49.33262499999999,91.6794461632309L49.757906250000005,102.31166830523634L49.867656249999996,93.54704442155776L50.347812499999996,103.99247268057454L50.55359375,122.5601043779802L50.786812499999996,120.93741057529853L50.81425,110.31023776207377L50.855406249999994,109.91254400432345L50.91028125,109.55462025217957L51.78828125,109.23248938541195L51.815718749999995,118.10929438585406L51.98034375,107.764975043372L52.776031249999996,107.62181016772757L52.954375,98.32625464116671L53.05040625,89.96026249081916L53.48940625,137.43107323609988L53.5305625,125.15459293538127L53.612874999999995,114.10576819707379L53.626593750000005,113.32852267766718L53.997,103.46231385032435L54.051875,103.74941640691164L54.12046875,94.84112444622224L54.32625,86.8236649090737L54.339968750000004,88.77463476484746L54.58690625,81.36382765338098L55.83531249999999,93.02745948013367L55.95878125,94.358048363655L56.09596875,86.38890211824938L56.246874999999996,88.38334705876042L56.50753125,108.51169554152358L57.5364375,99.12718572125122L57.74221875,90.68112820023609L58.15378125,101.41302180202541L58.222375,92.73838161678599L59.25128125,84.93120633769475L59.80003125,77.90474930548822L60.280187500000004,71.58093855887185L60.856375,84.22284916988791L60.92496875,86.43389828936107L61.1033125,88.42384236329241L61.2130625,81.04812289375171L61.25421875,74.40997573214187L61.52859375,86.7689807375626L61.77553125,79.55874797653682L61.96759375,73.06953874886179L61.995031250000004,76.39591871325675L62.1459375,79.38966058508244L62.790718749999996,91.25069598788139L62.8044375,92.75895988966602L63.09253124999999,84.94972978805238L63.47665625,96.25475782460285L63.58640625,106.42928286457999L63.69615625,106.41968791075716L64.1214375,106.4110524524499L64.21746875000001,97.23661333324677L64.258625,98.14628538149947L64.38209375,98.96499021576047L64.587875,99.70182455917123L64.71134375,100.36497546222618L64.9445625,110.12847825573421L65.01315625,100.58229679787586L65.02687499999999,101.15740046763072L65.20521875,92.50832686813987L65.2189375,93.89082754622099L65.23265624999999,113.46841186052026L65.36984375,103.58823715843072L65.411,94.69607996126398L65.64421875,95.85980531590147L66.014625,96.90715813176396L66.3164375,107.01644244123949L66.453625,97.78146476294216L66.68684375,107.80331838513692L66.7005625,107.65631987865672L67.50996875,98.357354483436L67.93525,108.32161910647814L67.97640625,108.12279052788134L68.07243749999999,98.77717808752767L68.22334375,90.36612690151327L69.0601875,101.12951426195428L69.23853125000001,101.6498961712937L69.73240625,92.95157318771346L69.74612499999999,85.12308250878372L70.00678125,87.24410759777949L70.0205,107.48636356085164L70.03421875,98.20439384824675L70.22628125,89.85062111130772L70.24,100.66555902206L70.25371875,92.0656697708598L70.34975,93.49243612944579L70.58296874999999,94.77652585172883L70.96709375,95.93220660142342L71.22775,87.80565259823805L71.32378125000001,89.65842067373991L71.57071875000001,82.15924526577544L71.611875,75.40998739998591L71.89996875,78.50232199574472L72.22921875,81.28542313146721L72.270375,74.62354748075707L72.7916875,68.62785939592163L73.258125,72.39840679160227L73.47762499999999,75.79189944734631L73.7245625,69.67937616673214L73.87546875,64.17810521466279L74.13612499999999,77.56029469771221L74.3281875,71.2709318926977L74.91809375,83.94383870689177L75.21990625000001,77.01612150116483L75.233625,70.78117601633461L75.32965625,65.16972508024975L75.35709375,60.119419237985795L75.453125,55.57414398012012L75.80981249999999,51.48339624818072L76.35856249999999,47.80172328954765L76.39971874999999,53.65488429461517L76.49575,49.7560625314078L76.660375,64.58045627967965L76.825,68.75574398540329L77.00334375,81.68016958786072L77.0170625,74.97881929527583L77.0445,68.94760403203752L77.5658125,63.519510295194905L77.60696875,67.80089259922592L77.63440625,62.487470005727666L77.66184375,66.87205633866827L77.703,61.65151737127538L77.757875,75.28636563460093L77.79903125000001,69.22439573762578L78.0596875,82.1019561642099L78.3615,84.52509388118054L78.43009375,77.53925115957703L79.03371874999999,80.4186593770095L79.32181250000001,73.84346010585911L80.22725,67.92578076184594L80.25468749999999,80.9332026858475L80.51534375,74.3065490838441L80.96806249999999,77.50922750883032L81.09153124999999,80.39163809131097L81.14640625,92.15247428228993L81.22871875,84.40389352066241L81.39334375000001,86.59683750194621L81.4345,97.73715375182759L81.8460625,98.59677170998381L81.96953125,90.20376120560518L82.05184374999999,91.81671841838649L82.477125,84.10171324317953L82.5045625,77.15820858550026L82.62803124999999,70.90905439359433L82.77893750000001,65.28481562088317L82.86125,78.55633405883357L82.95728125000001,81.334033986291L83.464875,83.83396392100117L83.80784375,76.91723419555262L83.89015625,70.69217744265202L83.97246874999999,83.42295969840919L84.013625,85.71399706190498L84.3154375,87.77593068905104L84.79559375,80.46500428680342L84.9465,83.05183719145955L85.42665625000001,76.21332013897295L85.72846875,79.22532145841187L85.83821875000001,72.76945597923206L86.67506250000001,66.9591770479712L86.81225,61.72992600983713L86.89456249999999,66.19026674218964L87.73140624999999,70.20457340130625L88.38990625,64.65078272783967L88.5408125,59.65237112172025L88.70543749999999,55.15380067621284L89.51484375,51.10508727525706L89.65203125,56.62791188106665L89.70690625,52.431787359625716L90.049875,48.65527529032846L90.10475000000001,72.75641442796808L90.1870625,85.28077298517388L90.66721875,87.38602901998992L90.708375,80.11409278465621L91.21596875,73.56935017285676L91.35315625000001,86.01241515557257L91.7235625,78.87784030668101L91.77843750000001,81.62338960934665L91.805875,74.927717315078L91.88818749999999,68.90161225023608L92.01165625,63.47811769187865L92.32718750000001,58.5969725893572L92.42321874999999,54.20394199708766L92.72503124999999,50.25021446404567L92.903375,55.8585263509749L92.95824999999999,70.07267371587768L92.97196875,82.86540634429055L93.38353124999999,76.04553237652783L93.69906250000001,69.90764580554159L93.7265,73.5502145583211L93.76765625,76.82852643582231L93.781375,79.77900712557339L93.891125,82.43443974635004L94.41243750000001,84.82432910504804L94.59078125,86.97522952787676L94.7965625,79.74437324175547L95.05721874999999,73.2366025842466L95.208125,85.71294232582215L95.33159375,78.60831475990638L95.756875,81.38081661724922L95.90778125000001,74.70940162219092L96.34678125,68.70512812663821L96.67603125,90.8012819806414L96.9366875,101.52115378257761L97.11503125,102.00237173765323L97.12875,93.26880123055446L97.2385,94.57525444083234L97.26593749999999,86.58439566341579L97.842125,79.39262276374068L97.897,72.92002715403325L97.951875,67.09469110529666L98.10278124999999,71.01855532810036L98.1439375,65.38336646195671L98.15765625,60.31169648242768L98.59665625,55.747193500851616L98.7475625,51.63914081743345L98.77499999999999,47.94189340235634L98.84359375000001,44.614370728787506L99.02193749999999,41.61960032257569L99.11796875,38.924306956984786L99.2963125,45.66520959461979L99.50209374999999,42.56535530182457L99.6255625,39.77548643830872L99.66671875,37.26460446114449L100.07828125,35.00481068169665L100.40753125,32.9709962801937L100.44868749999999,40.30722998550755L100.47612500000001,46.909840320290236L100.531,43.68552295492782L100.6133125,40.783637326101704L100.99743749999999,38.17194026015795L101.1071875,35.82141290080898L101.42271874999999,33.70593827739456L101.55990625,31.80201111632168L102.13609375,30.088476671356297L102.25956249999999,37.71296233755416L102.32815625,53.74166610379875L102.9455,49.83416616008542L103.01409375,55.48408287741015L103.17871875,60.569007923002914L103.80978125,55.978773797369186L105.18165625,51.847563084299004L106.04593750000001,66.46280677586917L106.4300625,61.28319276494875L106.74559375,56.62154015512034L107.44525,52.42605280627498L107.9116875,57.81678085898089L108.09003125000001,53.50176943974957L109.03662499999999,49.618259162441305L109.14637499999999,64.45643324619711L109.256125,68.64412325491111L109.48934375,63.246377596086745L109.70884375,58.38840650314469L109.87346874999999,63.18289918616366L110.36734375,58.33127593421396L110.47709375000001,63.13148167412605L110.82006249999999,58.2850001733802L110.83378124999999,53.923166822708716L111.27278125000001,49.997516807104645L111.30021875,55.63109845972775L111.57459375,51.53465528042175L111.6431875,47.847856419046266L111.67062499999999,44.52973744380823L111.6980625,50.71009703276083L112.05475,56.272420662818206L112.83671875,52.11184526320311L113.08365625,57.533994070216345L113.57753124999999,62.41392799652829L113.60496875,66.8058685302088L113.865625,61.59194834385468L114.304625,56.89942017613602L114.3320625,61.842811491855855L114.6613125,57.125197009336844L114.67503125,80.37934397506993L114.74362500000001,73.80807624422945L114.81221875,77.06060195313998L115.3198125,70.8212084244926L115.56675,74.37242091537685L115.82740625000001,86.73517882383909L116.04690624999999,79.52832760812169L116.23896875000001,73.04216151397614L116.48590625,67.20461202924527L116.5270625,80.28415082632074L116.9935,73.72240241035543L117.03465625,67.81682883598658L117.2404375,62.50181261905449L117.30903124999999,57.718298023815755L117.487375,53.413134888100906L117.55596875,49.538488065957594L117.77546875,55.217972592695176L117.84406249999999,69.49617533342544L117.91265625000001,73.1798911334165L117.96753125,67.32856868674163L118.18703125,62.06237848473416L118.65346875,66.48947396959419L118.98271874999999,70.47385990596818L119.6275,64.89314058203816L119.7646875,69.03715985716767L119.81956249999999,63.6001105381174L120.0390625,58.7067661509724L120.18996875,63.46942286920859L120.51921875,67.75581391562106L120.7524375,62.4468991907256L121.01309375,66.83554260498667L121.3011875,61.61865501115479L121.4109375,66.09012284337285L121.53440625,88.44777722570217L121.75390625,81.0696661697986L122.316375,74.42936621948533L122.35753125000001,77.61976293087011L122.5084375,71.32445330444973L122.60446875000001,65.65867464067156L123.12578124999999,60.55947384327111L123.34528125,74.30352645894399L123.41387499999999,68.33984047971616L123.44131250000001,72.13918976507799L123.7156875,66.39193745523696L123.86659375,61.21941037637996L124.072375,65.73080267207544L124.2095625,69.79105573820142L125.07384375,73.4452834977149L125.11500000000001,67.56742181461014L125.1973125,71.44401296648255L125.718625,65.76627833650096L125.9106875,69.82298383618428L125.938125,73.47401878589932L126.30853125,67.59328357397607L126.55546875,62.30062188324525L126.93959375,57.53722636158753L127.2276875,62.41683705876237L127.694125,57.64182001955271L128.0508125,53.344304684264245L128.1056875,58.64320754917139L128.31146875,63.41222012758755L128.50353125,58.53766478149537L128.75046875,81.65056497001243L129.2855,74.9521751396779L129.43640625,78.09029095904371L129.45012499999999,71.74792852980615L129.83425,66.03980234349225L129.889125,60.9024887758097L129.9165625,56.278906564895266L130.0811875,52.117682575072514L130.4104375,57.539247650898766L130.5750625,62.41865621914239L130.6848125,57.6434572638948L130.767125,53.34577820417203L130.91803125,58.6445337170883L131.02778125,54.24674701204607L131.05521875,50.28873897750796L131.60396875,55.89319841309067L131.7274375,51.77054523844814L131.754875,57.22682404793688L131.79603125,52.970808309809996L132.2213125,58.307060812162476L132.303625,53.943021397612924L132.523125,59.182052591184934L133.44228125,63.897180665399745L133.4834375,68.14079593219326L133.840125,71.96004967230748L133.90871875,75.3973780384102L134.3614375,69.32430690123576L134.37515625,73.02520954444554L134.73184375,76.35602192333457L134.9650625,70.18708639766761L135.0199375,64.63504442456745L135.1296875,68.80487331544433L135.19828125,63.39105265056663L135.21200000000002,67.68528071884337L135.2943125,62.38341931362574L135.56868749999998,75.94507738226312L135.74703125000002,69.81723631070348L135.82934375,64.30217934629972L136.1723125,68.50529474500323L136.21346875,63.121431937169646L136.9954375,58.275955410119444L137.62650000000002,53.91502653577402L137.81856249999998,59.156857215530096L137.9283125,54.70783816064359L138.24384375,59.87038767791277L138.2575625,55.35001557678802L138.5045,69.61501401910905L138.8611875,64.12017928386474L139.16299999999998,59.174828022145036L139.42365625,63.89067855326384L139.437375,58.968277364604035L139.82150000000001,72.87144962814372L140.15075000000002,76.2176379986629L140.32909375,70.06254086546339L140.68578125000002,64.5229534455836L140.98759375,68.70399143435867L141.06990625,72.46692562425626L141.17965625,75.853566395164L141.24825,69.7348764223143L141.97534374999998,64.22805544674954L142.01649999999998,77.6052499020745L142.16740625,71.31139157853373L142.35946875000002,65.64691908734713L142.63384375,78.88222717861221L142.82590624999997,72.4606711274176L142.89450000000002,66.68127068134241L143.45696875000002,79.8131436132081L143.92340625,82.46516258522078L144.10175,75.68531299336537L144.33496875,69.58344836069551L144.4584375,73.25843685795947L144.705375,67.39925983883009L144.78768749999998,62.12600052161378L144.91115625,75.71340046945222L145.5010625,69.60872708917364L145.66568750000002,64.11452104692293L145.693125,59.16973560889741L145.78915625,54.71942871467441L146.22815625,50.71415250987361L146.28303125,47.109403925553025L146.70831249999998,62.1984635329978L146.790625,57.44528384636469L147.0375625,53.167422128394755L147.119875,49.31734658222186L147.504,55.018945257333236L147.53143749999998,50.98371739826663L147.83325,47.35201232510646L147.8606875,44.08347775926242L147.997875,41.141796650002746L148.14878125,38.49428365166922L148.47803125000002,45.2781886198358L148.61521875,42.21703642451888L149.05421875,39.46199944873361L149.1228125,46.149132837193676L149.21884375,61.334219553474306L149.36975,65.83413093146021L149.45206249999998,60.7173845049808L149.76759374999997,65.27897938781629L149.82246875,60.21774811570137L150.70046875,55.66263997079776L150.7690625,51.56304264038451L150.9885625,47.873405043012646L151.35896875,44.55273120537799L151.57846875,41.56412475150685L151.70193749999999,48.041045609689554L151.8665625,44.7036077153871L152.51134374999998,50.86658027718187L152.56621875000002,47.24658891613038L152.9915,43.988596691184085L153.5128125,41.056403688732374L153.69115625,38.41742998652588L153.814625,36.04235365453991L153.95181250000002,33.90478495575246L154.0066875,31.98097312684393L154.363375,39.416209147492836L154.89840625,46.107921566077074L155.06303125000002,42.963796076136L155.09046875,40.1340831351892L155.1865,37.58734148833704L155.39228125,35.29527400617005L155.51575,33.232413272219574L155.63921875,31.37583861166435L155.73525,29.704921417164492L155.83128125,37.367762608781625L155.91359375000002,44.26431968123689L155.9273125,41.30455437977975L156.009625,47.80743227513515L156.07821875,44.493355714288136L156.21540625,41.51068680952587L156.64068749999998,57.15961812857319L156.95621874999998,62.076989649049324L156.98365625000002,57.335957350811L157.162,53.06902828239643L157.3815,49.228792120823286L157.601,45.772579575407605L157.61471875,42.66198828453364L157.6284375,39.86245612274694L158.2869375,46.50954384380583L158.41040625,43.32525612609194L158.533875,40.459397180149296L158.6710625,37.88012412880097L159.04146875,44.72544504925419L159.15121875,60.05290054432869L159.23353125,64.68094382322943L159.41187499999998,59.67951610757324L160.11153125,55.17823116348263L160.12525,69.46040804713428L160.16640625,63.981033909087415L160.39962500000001,59.049597184845425L160.56425000000002,63.77797079969437L160.674,77.20017371972484L161.00325,70.94682301441902L161.0306875,65.31880737964372L161.23646875,60.253593308345955L161.2501875,55.69490064417787L161.497125,51.5920772464266L161.71662500000002,57.06620285511734L162.05959375,52.826249236272275L162.2105,49.010290979311684L162.38884375,45.575928548047216L162.56718750000002,42.48500235990906L162.80040625,48.869835457251696L162.8964375,54.61618524485984L163.1708125,50.62123338704049L163.308,56.19244338166999L163.472625,61.20653237683656L163.48634375,56.55254580581967L163.91162500000002,52.36395789190441L163.92534375,48.59422876938066L163.9390625,45.20147255910924L164.07625,42.147991969864954L164.25459375,39.399859439545196L164.33690625,36.9265401622572L164.44665625000002,34.7005528126981L164.52896875000002,32.697164198095095L165.48928124999998,30.894114444952287L165.8596875,29.271369667123643L166.28496875,27.810899367077965L166.35356249999998,35.66314276370377L166.5181875,33.56349515400012L167.21784375000001,31.673812305266843L167.24528125,29.97309774140666L167.47850000000003,28.442454633932776L167.57453125,27.06487583720609L167.71171875,25.825054920152162L168.31534375,33.87588276147051L168.46625,31.954961151990233L168.68575,30.226131703457803L169.3168125,37.836851866445336L169.35796875,35.51983334646757L169.37168749999998,42.60118334515412L170.04390625000002,39.80773167730542L170.72984375,37.293625176241676L170.81215625000002,35.03092932528422L170.82587500000002,42.16116972608909L170.9081875,39.41171942014676L171.49809375,36.93721414479875L171.7313125,43.87682606365246L172.18403125,50.12247679062078L172.32121874999999,46.57689577822534L172.48584375000002,43.385872867069445L172.59559375,40.513952247029046L172.801375,47.09589035565957L173.0483125,43.85296798676028L173.30896875000002,40.93433785475102L173.44615625,47.47423740260953L173.47359375,53.360146995682186L174.32415625,58.65746562944751L174.46134375,54.25838573316956L174.557375,50.299213826519136L174.62596875,46.7359591105338L174.84546875,43.52902986614721L174.9415,40.642793546199236L175.11984375,38.045180858245814L175.20215624999997,35.70732943908776L176.1761875,51.93659649517889L176.93071875,48.20960351232763L176.98559375,54.021976494428316L178.0145,59.253112178318986L178.6455625,54.79446762715376L178.65928125,50.78168753110509L178.72787499999998,47.17018544466116L178.837625,53.08650023352858L179.08456249999998,49.244516876842255L179.6333125,45.78673185582453L179.96256250000002,42.67472533690859L180.044875,49.04058613655126L180.05859375,45.603194189562686L180.16834375,60.84287477060621L180.52503125,56.225253960212314L180.6759375,52.0693952308578L181.19725,57.495789041105475L181.25212499999998,53.21287680366155L181.3344375,49.35825578996206L181.43046875,45.889096877632646L181.4441875,51.93352052320274L181.6088125,48.206835137549035L181.85574999999997,44.85281829046077L182.239875,51.0008697947482L182.39078124999997,47.36744948193996L182.8709375,53.26403786707942L182.88465625,58.57096741370479L182.99440625000003,54.18053733900103L183.337375,59.3958169384344L183.74893749999998,73.25623524459085L183.886125,76.56394505346516L183.95471874999998,70.37421721478529L184.42115625,64.80346215997353L184.48975,78.12311594397626L184.5171875,80.94413768291223L184.62693750000003,74.31639058128752L184.66809375,77.51808485649234L184.69553125000002,80.39960970417668L185.0659375,73.82631540042563L185.24428125,67.91035052704984L185.5598125,62.58598214101167L185.57353125,66.96071726024392L185.971375,61.73131220088618L186.1634375,57.02484764746438L186.27318749999998,52.789029549384665L186.72590625,48.976793261112704L187.16490625,45.545780601668135L187.892,42.45786920816787L188.12521875,39.67874895401772L188.44074999999998,37.17754072528247L188.6328125,34.926453319420766L188.715125,32.90047465414527L188.83859375,31.07709385539747L189.09925,38.60271780319117L189.1266875,36.209112689538564L189.55196875,43.221534753918185L189.57940624999998,40.36604794519287L189.63428125000002,37.796109817340245L189.812625,35.48316550227299L189.92237500000002,33.4015156187124L189.96353125000002,31.52803072350769L190.01840625,29.841894317823424L190.23790625,37.49103821937453L190.36137499999998,35.20860106410359L190.4436875,42.321074291026825L190.95128125,39.55563352859081L191.019875,46.233403509065056L191.25309374999998,43.07672982482511L191.44515625,40.235723509009205L191.458875,37.6788178247748L191.6509375,35.37760270896392L191.678375,33.30650910473416L191.74696874999998,31.44252486092742L191.99390625,29.76493904150121L192.227125,37.421778470684636L192.43290625,44.31293395694959L192.84446875,41.34830722792128L192.92678125,38.68014317179573L192.995375,36.27879552128279L193.105125,34.11758263582122L193.91453125,32.17249103890587L194.20262499999998,39.58857526834882L194.36725,46.263051074847354L194.46328125,43.103412634029254L194.51815625,40.259738037292834L194.94343750000002,37.70043090023012L195.28640625,44.56372114354058L195.3275625,41.57401569585332L195.43731250000002,38.8832807929345L195.6568125,36.46161938030772L195.78028125,34.28212410894375L196.20556249999998,32.320578364715885L196.23299999999998,48.88852052824437L196.287875,54.63300180875325L196.397625,50.63636829454456L196.41134375,47.03939813175674L196.79546875000003,43.802124985247865L196.9189375,50.055245820056555L196.98753125,46.516387904717675L197.08356250000003,52.49808244757947L197.1384375,48.7149408694881L197.4676875,54.4767801158728L197.5225625,50.495768770952246L197.54999999999998,46.912858560523624L197.83809374999998,52.85490603780462L197.8518125,49.036082100690784L197.86553124999998,54.76580722395531L198.05759375,50.75589316822628L198.13990625,47.14697051807026L198.22221875,53.06560679959675L198.592625,49.2257127863038L198.6200625,45.7698081743401L198.64749999999998,42.659494023572826L199.22368749999998,39.8602112878821L199.6626875,37.34085682576047L200.30746875,35.07343780985103L200.8699375,33.03276069553256L200.95225000000002,31.19615129264592L201.02084375,29.543202830047896L201.37753125,28.055549213709895L201.77537500000003,35.88332762567248L202.03603124999998,33.76166152977204L202.7905625,31.852162043461504L202.91403125000002,48.46694583911523L203.68228125,54.25358458853732L203.8331875,50.29489279635028L204.42309375,46.732070183381936L204.47796875,52.69219649837734L204.7111875,58.05631018187315L205.013,53.71734583035241L205.39712500000002,68.14561124731704L205.452,62.79771678925198L205.4794375,76.3179451103268L205.52059375,70.15281726596066L205.74009375,64.6042022060311L205.91843749999998,59.61044865209456L206.0281875,55.11607045355184L206.1105,60.237796741530104L206.16537499999998,55.68068373404386L206.275125,51.579282027306185L206.28884375,47.88802049124214L206.42603125,44.565885108784556L206.43974999999998,41.57596326457284L206.9885,38.88503360478225L207.04337500000003,45.6298635776376L208.36037499999998,42.53354388654044L208.6621875,48.91352283121987L208.89540624999998,45.488837214764686L208.99143750000002,42.40662015995486L209.11490625,39.63262481062588L209.2109375,37.136028996230095L209.36184375,34.88909276327365L209.82828125,32.8668501536129L209.95175,40.213498471585105L210.56909374999998,37.658815291093404L211.10412499999998,44.526267095317635L211.5156875,41.54030705245257L212.02328125000003,38.85294301387411L212.9424375,45.600982045820274L213.06590624999998,60.840883841238195L213.079625,65.39012879044796L213.3265625,60.3177825780698L213.4363125,55.752670986929346L213.68325000000002,51.644070554903095L213.847875,47.94633016607951L213.90275,44.6183638161383L214.32803125,41.62319410119101L214.5886875,48.09420802440525L214.616125,44.7514538886315L214.6435625,41.74297516643499L214.65728125,48.20201098312486L214.83562500000002,44.84847655147892L215.4118125,41.83029556299753L215.60387500000002,39.11393267336457L215.87825,36.66920607269475L216.19378125,43.63561879875888L216.49559375,49.90539025221647L216.7836875,55.54818456032839L217.18153125,69.79336610429557L217.42846875,64.28069616053266L217.7714375,59.3192932111459L217.9909375,54.85403055669788L218.347625,50.835294167694805L218.53968749999999,47.21843141759205L219.10215625,43.96325494249935L219.225625,50.200262781582886L219.5823125,46.64690317009114L219.98015625,43.448879519748665L220.1310625,49.73732490110713L220.8993125,46.230259077663064L221.05021875,43.07389983656342L221.091375,40.233176519573824L221.24228125,46.84319220095005L221.32459375,43.6255396475216L221.420625,40.729652349436016L221.66756249999997,38.123353781159025L221.92821874999998,35.777685069709925L221.98309375000002,33.66658322940554L222.079125,31.766591573131592L222.1614375,39.223265749151906L222.3260625,36.767605840903435L222.47696875,34.55751192347973L222.55928125,41.735094064465066L222.573,39.02825132468507L223.0394375,36.592092858883134L223.13546875,43.566216906328265L224.17809375000002,40.676261882362105L224.28784375,47.24196902745951L224.3564375,43.984438791380114L224.45246875,41.052661578908875L224.5210625,38.414062087684734L224.53478125,36.03932254558306L224.64453125,33.90205695769146L224.822875,31.978517928588918L224.97378125,30.247332802396592L224.98749999999998,37.85593285549038L225.05609375,44.70367290327485L225.24815625,41.6999722796141L225.35790625,38.99664171831933L225.371625,36.56364421315409L225.48137499999999,34.373946458505195L226.2770625,41.569885145988266L226.3045,38.87956329805601L226.83953125,36.45827363491705L226.85325,34.279112938092155L227.017875,32.317868310949464L227.41571875,30.552748146521196L228.04678125,38.130806665202385L228.34859375000002,35.78439266534876L229.4049375,42.83928673214718L229.597,40.02202472559923L229.72046875,46.653155586372634L229.92624999999998,43.45450669440187L230.15946875,40.575722691628386L230.26921875000002,47.15148375579902L230.6121875,53.069668713552666L230.73565625,49.22936850886403L231.02374999999998,45.77309832464431L231.17465625,42.662455158846605L231.35299999999998,39.862876309628746L231.40787500000002,37.34325534533238L231.83315625,44.24226314413246L231.90175,41.2847034963859L231.98406250000002,47.78956648008083L232.13496874999998,53.64394316540606L232.18984375,49.74621551553224L232.395625,46.23826063064566L232.58768750000002,43.0811012342478L232.98553124999998,40.23965777748972L233.47940624999998,37.682358666407296L234.11046875,44.547456133100134L234.12418749999998,41.55937718645688L234.17906250000001,57.20343946781121L234.5631875,52.94976218769686L234.7278125,49.12145263559395L234.865,45.67597403870124L234.919875,42.575043301497765L235.1119375,58.117538971348075L235.31771875,53.77245174088007L235.63325,68.19520656679214L235.75671874999998,62.842352576779476L235.94878125,58.02478398576828L236.05853125,53.688972253858125L237.5813125,58.953408361805664L237.8008125,54.5247341922917L237.992875,50.53892743972902L238.1849375,56.11836802908944L238.30840625000002,61.13986455951398L238.70625,65.65921143689592L238.84343750000002,69.72662362653985L238.96690625,64.22062793055251L239.18640625,68.43189847083075L239.26871875,63.05537529041433L239.4745,67.38317109470634L239.5568125,62.11152065190228L239.57053125,66.53370192004547L239.94093750000002,61.34699839470747L239.968375,56.678965221903226L240.078125,61.644402033046305L240.47596875,56.94662849640821L241.5871875,52.71863231343403L241.90271875000002,48.91343574875732L241.9713125,63.82209217388154L242.38287499999998,77.23988295649339L242.821875,80.14922799417735L242.9865,73.60097186142623L243.1236875,76.8742080086172L243.49409375,70.65345387442218L243.645,65.05477515364664L243.96053125,60.01596430494868L244.05656249999998,55.481034541120536L244.09771875,51.3995977536753L244.20746875,47.726304644974554L244.2760625,53.587007513810576L244.38581250000001,49.694973429096294L244.46812500000001,46.1921427528533L244.61903124999998,43.03959514423447L245.19521875,40.20230229647767L245.22265625,46.81540540016337L245.85371875,43.600531526813775L245.8674375,40.707145040799034L246.1966875,47.26976387005254L246.4161875,44.00945414971406L246.663125,41.07517540140921L247.11584374999998,38.43432452793484L247.3765,36.05755874180815L247.5136875,33.91846953429405L247.98012500000002,31.99328924753115L248.37796875,30.260626989444603L248.419125,28.701230957166675L248.54259375,27.297774528116744L248.65234375,26.034663741971805L248.99531249999998,24.897864034441206L249.47546875,42.20807763099716L249.48918749999999,39.453936534564185L250.175125,46.1418762144413L250.21628125,52.161021926330775L250.24371875,48.41158640036437L250.32603125,45.037094426994614L251.23146874999998,42.000051650961936L251.65675000000002,39.26671315253231L251.6841875,36.806708503945714L252.31525,34.59270432021772L252.35640625,41.76676722152945L252.57590625,48.223423832710026L252.58962499999998,54.03441478277253L252.6170625,50.097639971162L252.79540625,46.55454264071254L253.57737500000002,43.36575504330795L253.61853125,40.495846205643765L254.5376875,37.91292825174605L255.20990625000002,35.58830209323822L255.23734375,33.49613855058093L255.37453125,31.613191362189358L255.8546875,29.91853889263691L255.97815624999998,28.39335167004002L256.101625,27.02068316970276L256.96590625,25.785281519399025L257.02078124999997,24.673420034125797L257.81646875,32.83941136404666L258.132,31.022136894308524L258.3789375,29.386589871544253L258.7905,37.081264217723174L258.8179375,34.83980446261756L258.99628125,51.15582401635589" style="fill: none;" fill="none"></path></g></g></g></g><g opacity="0.2"><g><g><g><path stroke="rgb(255, 112, 67)" stroke-width="2px" d="M29.1935,197.9999999999999L29.6325,106.33333333333312L29.687375000000003,197.9999999999999L30.057781249999998,381.33333333333337L30.22240625,14.66666666666636L30.57909375,381.33333333333337L30.990656249999997,748.0000000000003L31.306187499999997,14.66666666666636L31.34734375,106.33333333333312L31.772625,197.9999999999999L31.813781249999998,289.66666666666663L32.1841875,106.33333333333312L32.3488125,289.66666666666663L32.4585625,106.33333333333312L32.7329375,197.9999999999999L32.9524375,106.33333333333312L33.13078125,197.9999999999999L33.5560625,197.9999999999999L33.761843750000004,106.33333333333312L33.81671875,197.9999999999999L33.95390625,289.66666666666663L34.036218749999996,14.66666666666636L34.4340625,197.9999999999999L34.8181875,197.9999999999999L34.845625,106.33333333333312L35.065125,197.9999999999999L35.147437499999995,106.33333333333312L35.5864375,197.9999999999999L36.17634375,197.9999999999999L36.258656249999994,14.66666666666636L36.272375000000004,289.66666666666663L36.464437499999995,289.66666666666663L36.587906249999996,14.66666666666636L36.69765625,14.66666666666636L37.32871875,106.33333333333312L37.918625,197.9999999999999L38.1655625,289.66666666666663L38.247875,106.33333333333312L38.467375,14.66666666666636L39.19446875,197.9999999999999L39.317937500000006,14.66666666666636L39.592312500000006,106.33333333333312L40.3605625,197.9999999999999L41.14253125,197.9999999999999L41.36203125,14.66666666666636L41.458062500000004,106.33333333333312L41.5129375,106.33333333333312L41.663843750000005,106.33333333333312L41.924499999999995,106.33333333333312L42.130281249999996,14.66666666666636L42.212593749999996,14.66666666666636L42.500687500000005,197.9999999999999L42.65159375,106.33333333333312L42.67903125,197.9999999999999L42.87109375,197.9999999999999L42.967124999999996,106.33333333333312L43.22778125,106.33333333333312L43.241499999999995,197.9999999999999L43.406125,289.66666666666663L43.5433125,106.33333333333312L43.57075,106.33333333333312L43.6805,14.66666666666636L44.1469375,106.33333333333312L44.24296875,106.33333333333312L44.613375,106.33333333333312L44.6408125,14.66666666666636L44.681968749999996,106.33333333333312L44.73684375,106.33333333333312L44.81915625,14.66666666666636L44.87403125,14.66666666666636L45.2444375,14.66666666666636L45.614843750000006,106.33333333333312L45.889218750000005,14.66666666666636L46.30078125,197.9999999999999L46.87696875,289.66666666666663L47.17878125,14.66666666666636L47.42571875,106.33333333333312L47.4394375,106.33333333333312L47.9333125,106.33333333333312L48.043062500000005,106.33333333333312L48.152812499999996,289.66666666666663L48.19396875,14.66666666666636L48.674125000000004,106.33333333333312L48.715281250000004,106.33333333333312L48.907343749999995,14.66666666666636L48.9485,14.66666666666636L49.01709375,14.66666666666636L49.181718749999995,197.9999999999999L49.33262499999999,14.66666666666636L49.757906250000005,197.9999999999999L49.867656249999996,14.66666666666636L50.347812499999996,197.9999999999999L50.55359375,289.66666666666663L50.786812499999996,106.33333333333312L50.81425,14.66666666666636L50.855406249999994,106.33333333333312L50.91028125,106.33333333333312L51.78828125,106.33333333333312L51.815718749999995,197.9999999999999L51.98034375,14.66666666666636L52.776031249999996,106.33333333333312L52.954375,14.66666666666636L53.05040625,14.66666666666636L53.48940625,564.666666666667L53.5305625,14.66666666666636L53.612874999999995,14.66666666666636L53.626593750000005,106.33333333333312L53.997,14.66666666666636L54.051875,106.33333333333312L54.12046875,14.66666666666636L54.32625,14.66666666666636L54.339968750000004,106.33333333333312L54.58690625,14.66666666666636L55.83531249999999,197.9999999999999L55.95878125,106.33333333333312L56.09596875,14.66666666666636L56.246874999999996,106.33333333333312L56.50753125,289.66666666666663L57.5364375,14.66666666666636L57.74221875,14.66666666666636L58.15378125,197.9999999999999L58.222375,14.66666666666636L59.25128125,14.66666666666636L59.80003125,14.66666666666636L60.280187500000004,14.66666666666636L60.856375,197.9999999999999L60.92496875,106.33333333333312L61.1033125,106.33333333333312L61.2130625,14.66666666666636L61.25421875,14.66666666666636L61.52859375,197.9999999999999L61.77553125,14.66666666666636L61.96759375,14.66666666666636L61.995031250000004,106.33333333333312L62.1459375,106.33333333333312L62.790718749999996,197.9999999999999L62.8044375,106.33333333333312L63.09253124999999,14.66666666666636L63.47665625,197.9999999999999L63.58640625,197.9999999999999L63.69615625,106.33333333333312L64.1214375,106.33333333333312L64.21746875000001,14.66666666666636L64.258625,106.33333333333312L64.38209375,106.33333333333312L64.587875,106.33333333333312L64.71134375,106.33333333333312L64.9445625,197.9999999999999L65.01315625,14.66666666666636L65.02687499999999,106.33333333333312L65.20521875,14.66666666666636L65.2189375,106.33333333333312L65.23265624999999,289.66666666666663L65.36984375,14.66666666666636L65.411,14.66666666666636L65.64421875,106.33333333333312L66.014625,106.33333333333312L66.3164375,197.9999999999999L66.453625,14.66666666666636L66.68684375,197.9999999999999L66.7005625,106.33333333333312L67.50996875,14.66666666666636L67.93525,197.9999999999999L67.97640625,106.33333333333312L68.07243749999999,14.66666666666636L68.22334375,14.66666666666636L69.0601875,197.9999999999999L69.23853125000001,106.33333333333312L69.73240625,14.66666666666636L69.74612499999999,14.66666666666636L70.00678125,106.33333333333312L70.0205,289.66666666666663L70.03421875,14.66666666666636L70.22628125,14.66666666666636L70.24,197.9999999999999L70.25371875,14.66666666666636L70.34975,106.33333333333312L70.58296874999999,106.33333333333312L70.96709375,106.33333333333312L71.22775,14.66666666666636L71.32378125000001,106.33333333333312L71.57071875000001,14.66666666666636L71.611875,14.66666666666636L71.89996875,106.33333333333312L72.22921875,106.33333333333312L72.270375,14.66666666666636L72.7916875,14.66666666666636L73.258125,106.33333333333312L73.47762499999999,106.33333333333312L73.7245625,14.66666666666636L73.87546875,14.66666666666636L74.13612499999999,197.9999999999999L74.3281875,14.66666666666636L74.91809375,197.9999999999999L75.21990625000001,14.66666666666636L75.233625,14.66666666666636L75.32965625,14.66666666666636L75.35709375,14.66666666666636L75.453125,14.66666666666636L75.80981249999999,14.66666666666636L76.35856249999999,14.66666666666636L76.39971874999999,106.33333333333312L76.49575,14.66666666666636L76.660375,197.9999999999999L76.825,106.33333333333312L77.00334375,197.9999999999999L77.0170625,14.66666666666636L77.0445,14.66666666666636L77.5658125,14.66666666666636L77.60696875,106.33333333333312L77.63440625,14.66666666666636L77.66184375,106.33333333333312L77.703,14.66666666666636L77.757875,197.9999999999999L77.79903125000001,14.66666666666636L78.0596875,197.9999999999999L78.3615,106.33333333333312L78.43009375,14.66666666666636L79.03371874999999,106.33333333333312L79.32181250000001,14.66666666666636L80.22725,14.66666666666636L80.25468749999999,197.9999999999999L80.51534375,14.66666666666636L80.96806249999999,106.33333333333312L81.09153124999999,106.33333333333312L81.14640625,197.9999999999999L81.22871875,14.66666666666636L81.39334375000001,106.33333333333312L81.4345,197.9999999999999L81.8460625,106.33333333333312L81.96953125,14.66666666666636L82.05184374999999,106.33333333333312L82.477125,14.66666666666636L82.5045625,14.66666666666636L82.62803124999999,14.66666666666636L82.77893750000001,14.66666666666636L82.86125,197.9999999999999L82.95728125000001,106.33333333333312L83.464875,106.33333333333312L83.80784375,14.66666666666636L83.89015625,14.66666666666636L83.97246874999999,197.9999999999999L84.013625,106.33333333333312L84.3154375,106.33333333333312L84.79559375,14.66666666666636L84.9465,106.33333333333312L85.42665625000001,14.66666666666636L85.72846875,106.33333333333312L85.83821875000001,14.66666666666636L86.67506250000001,14.66666666666636L86.81225,14.66666666666636L86.89456249999999,106.33333333333312L87.73140624999999,106.33333333333312L88.38990625,14.66666666666636L88.5408125,14.66666666666636L88.70543749999999,14.66666666666636L89.51484375,14.66666666666636L89.65203125,106.33333333333312L89.70690625,14.66666666666636L90.049875,14.66666666666636L90.10475000000001,289.66666666666663L90.1870625,197.9999999999999L90.66721875,106.33333333333312L90.708375,14.66666666666636L91.21596875,14.66666666666636L91.35315625000001,197.9999999999999L91.7235625,14.66666666666636L91.77843750000001,106.33333333333312L91.805875,14.66666666666636L91.88818749999999,14.66666666666636L92.01165625,14.66666666666636L92.32718750000001,14.66666666666636L92.42321874999999,14.66666666666636L92.72503124999999,14.66666666666636L92.903375,106.33333333333312L92.95824999999999,197.9999999999999L92.97196875,197.9999999999999L93.38353124999999,14.66666666666636L93.69906250000001,14.66666666666636L93.7265,106.33333333333312L93.76765625,106.33333333333312L93.781375,106.33333333333312L93.891125,106.33333333333312L94.41243750000001,106.33333333333312L94.59078125,106.33333333333312L94.7965625,14.66666666666636L95.05721874999999,14.66666666666636L95.208125,197.9999999999999L95.33159375,14.66666666666636L95.756875,106.33333333333312L95.90778125000001,14.66666666666636L96.34678125,14.66666666666636L96.67603125,289.66666666666663L96.9366875,197.9999999999999L97.11503125,106.33333333333312L97.12875,14.66666666666636L97.2385,106.33333333333312L97.26593749999999,14.66666666666636L97.842125,14.66666666666636L97.897,14.66666666666636L97.951875,14.66666666666636L98.10278124999999,106.33333333333312L98.1439375,14.66666666666636L98.15765625,14.66666666666636L98.59665625,14.66666666666636L98.7475625,14.66666666666636L98.77499999999999,14.66666666666636L98.84359375000001,14.66666666666636L99.02193749999999,14.66666666666636L99.11796875,14.66666666666636L99.2963125,106.33333333333312L99.50209374999999,14.66666666666636L99.6255625,14.66666666666636L99.66671875,14.66666666666636L100.07828125,14.66666666666636L100.40753125,14.66666666666636L100.44868749999999,106.33333333333312L100.47612500000001,106.33333333333312L100.531,14.66666666666636L100.6133125,14.66666666666636L100.99743749999999,14.66666666666636L101.1071875,14.66666666666636L101.42271874999999,14.66666666666636L101.55990625,14.66666666666636L102.13609375,14.66666666666636L102.25956249999999,106.33333333333312L102.32815625,197.9999999999999L102.9455,14.66666666666636L103.01409375,106.33333333333312L103.17871875,106.33333333333312L103.80978125,14.66666666666636L105.18165625,14.66666666666636L106.04593750000001,197.9999999999999L106.4300625,14.66666666666636L106.74559375,14.66666666666636L107.44525,14.66666666666636L107.9116875,106.33333333333312L108.09003125000001,14.66666666666636L109.03662499999999,14.66666666666636L109.14637499999999,197.9999999999999L109.256125,106.33333333333312L109.48934375,14.66666666666636L109.70884375,14.66666666666636L109.87346874999999,106.33333333333312L110.36734375,14.66666666666636L110.47709375000001,106.33333333333312L110.82006249999999,14.66666666666636L110.83378124999999,14.66666666666636L111.27278125000001,14.66666666666636L111.30021875,106.33333333333312L111.57459375,14.66666666666636L111.6431875,14.66666666666636L111.67062499999999,14.66666666666636L111.6980625,106.33333333333312L112.05475,106.33333333333312L112.83671875,14.66666666666636L113.08365625,106.33333333333312L113.57753124999999,106.33333333333312L113.60496875,106.33333333333312L113.865625,14.66666666666636L114.304625,14.66666666666636L114.3320625,106.33333333333312L114.6613125,14.66666666666636L114.67503125,289.66666666666663L114.74362500000001,14.66666666666636L114.81221875,106.33333333333312L115.3198125,14.66666666666636L115.56675,106.33333333333312L115.82740625000001,197.9999999999999L116.04690624999999,14.66666666666636L116.23896875000001,14.66666666666636L116.48590625,14.66666666666636L116.5270625,197.9999999999999L116.9935,14.66666666666636L117.03465625,14.66666666666636L117.2404375,14.66666666666636L117.30903124999999,14.66666666666636L117.487375,14.66666666666636L117.55596875,14.66666666666636L117.77546875,106.33333333333312L117.84406249999999,197.9999999999999L117.91265625000001,106.33333333333312L117.96753125,14.66666666666636L118.18703125,14.66666666666636L118.65346875,106.33333333333312L118.98271874999999,106.33333333333312L119.6275,14.66666666666636L119.7646875,106.33333333333312L119.81956249999999,14.66666666666636L120.0390625,14.66666666666636L120.18996875,106.33333333333312L120.51921875,106.33333333333312L120.7524375,14.66666666666636L121.01309375,106.33333333333312L121.3011875,14.66666666666636L121.4109375,106.33333333333312L121.53440625,289.66666666666663L121.75390625,14.66666666666636L122.316375,14.66666666666636L122.35753125000001,106.33333333333312L122.5084375,14.66666666666636L122.60446875000001,14.66666666666636L123.12578124999999,14.66666666666636L123.34528125,197.9999999999999L123.41387499999999,14.66666666666636L123.44131250000001,106.33333333333312L123.7156875,14.66666666666636L123.86659375,14.66666666666636L124.072375,106.33333333333312L124.2095625,106.33333333333312L125.07384375,106.33333333333312L125.11500000000001,14.66666666666636L125.1973125,106.33333333333312L125.718625,14.66666666666636L125.9106875,106.33333333333312L125.938125,106.33333333333312L126.30853125,14.66666666666636L126.55546875,14.66666666666636L126.93959375,14.66666666666636L127.2276875,106.33333333333312L127.694125,14.66666666666636L128.0508125,14.66666666666636L128.1056875,106.33333333333312L128.31146875,106.33333333333312L128.50353125,14.66666666666636L128.75046875,289.66666666666663L129.2855,14.66666666666636L129.43640625,106.33333333333312L129.45012499999999,14.66666666666636L129.83425,14.66666666666636L129.889125,14.66666666666636L129.9165625,14.66666666666636L130.0811875,14.66666666666636L130.4104375,106.33333333333312L130.5750625,106.33333333333312L130.6848125,14.66666666666636L130.767125,14.66666666666636L130.91803125,106.33333333333312L131.02778125,14.66666666666636L131.05521875,14.66666666666636L131.60396875,106.33333333333312L131.7274375,14.66666666666636L131.754875,106.33333333333312L131.79603125,14.66666666666636L132.2213125,106.33333333333312L132.303625,14.66666666666636L132.523125,106.33333333333312L133.44228125,106.33333333333312L133.4834375,106.33333333333312L133.840125,106.33333333333312L133.90871875,106.33333333333312L134.3614375,14.66666666666636L134.37515625,106.33333333333312L134.73184375,106.33333333333312L134.9650625,14.66666666666636L135.0199375,14.66666666666636L135.1296875,106.33333333333312L135.19828125,14.66666666666636L135.21200000000002,106.33333333333312L135.2943125,14.66666666666636L135.56868749999998,197.9999999999999L135.74703125000002,14.66666666666636L135.82934375,14.66666666666636L136.1723125,106.33333333333312L136.21346875,14.66666666666636L136.9954375,14.66666666666636L137.62650000000002,14.66666666666636L137.81856249999998,106.33333333333312L137.9283125,14.66666666666636L138.24384375,106.33333333333312L138.2575625,14.66666666666636L138.5045,197.9999999999999L138.8611875,14.66666666666636L139.16299999999998,14.66666666666636L139.42365625,106.33333333333312L139.437375,14.66666666666636L139.82150000000001,197.9999999999999L140.15075000000002,106.33333333333312L140.32909375,14.66666666666636L140.68578125000002,14.66666666666636L140.98759375,106.33333333333312L141.06990625,106.33333333333312L141.17965625,106.33333333333312L141.24825,14.66666666666636L141.97534374999998,14.66666666666636L142.01649999999998,197.9999999999999L142.16740625,14.66666666666636L142.35946875000002,14.66666666666636L142.63384375,197.9999999999999L142.82590624999997,14.66666666666636L142.89450000000002,14.66666666666636L143.45696875000002,197.9999999999999L143.92340625,106.33333333333312L144.10175,14.66666666666636L144.33496875,14.66666666666636L144.4584375,106.33333333333312L144.705375,14.66666666666636L144.78768749999998,14.66666666666636L144.91115625,197.9999999999999L145.5010625,14.66666666666636L145.66568750000002,14.66666666666636L145.693125,14.66666666666636L145.78915625,14.66666666666636L146.22815625,14.66666666666636L146.28303125,14.66666666666636L146.70831249999998,197.9999999999999L146.790625,14.66666666666636L147.0375625,14.66666666666636L147.119875,14.66666666666636L147.504,106.33333333333312L147.53143749999998,14.66666666666636L147.83325,14.66666666666636L147.8606875,14.66666666666636L147.997875,14.66666666666636L148.14878125,14.66666666666636L148.47803125000002,106.33333333333312L148.61521875,14.66666666666636L149.05421875,14.66666666666636L149.1228125,106.33333333333312L149.21884375,197.9999999999999L149.36975,106.33333333333312L149.45206249999998,14.66666666666636L149.76759374999997,106.33333333333312L149.82246875,14.66666666666636L150.70046875,14.66666666666636L150.7690625,14.66666666666636L150.9885625,14.66666666666636L151.35896875,14.66666666666636L151.57846875,14.66666666666636L151.70193749999999,106.33333333333312L151.8665625,14.66666666666636L152.51134374999998,106.33333333333312L152.56621875000002,14.66666666666636L152.9915,14.66666666666636L153.5128125,14.66666666666636L153.69115625,14.66666666666636L153.814625,14.66666666666636L153.95181250000002,14.66666666666636L154.0066875,14.66666666666636L154.363375,106.33333333333312L154.89840625,106.33333333333312L155.06303125000002,14.66666666666636L155.09046875,14.66666666666636L155.1865,14.66666666666636L155.39228125,14.66666666666636L155.51575,14.66666666666636L155.63921875,14.66666666666636L155.73525,14.66666666666636L155.83128125,106.33333333333312L155.91359375000002,106.33333333333312L155.9273125,14.66666666666636L156.009625,106.33333333333312L156.07821875,14.66666666666636L156.21540625,14.66666666666636L156.64068749999998,197.9999999999999L156.95621874999998,106.33333333333312L156.98365625000002,14.66666666666636L157.162,14.66666666666636L157.3815,14.66666666666636L157.601,14.66666666666636L157.61471875,14.66666666666636L157.6284375,14.66666666666636L158.2869375,106.33333333333312L158.41040625,14.66666666666636L158.533875,14.66666666666636L158.6710625,14.66666666666636L159.04146875,106.33333333333312L159.15121875,197.9999999999999L159.23353125,106.33333333333312L159.41187499999998,14.66666666666636L160.11153125,14.66666666666636L160.12525,197.9999999999999L160.16640625,14.66666666666636L160.39962500000001,14.66666666666636L160.56425000000002,106.33333333333312L160.674,197.9999999999999L161.00325,14.66666666666636L161.0306875,14.66666666666636L161.23646875,14.66666666666636L161.2501875,14.66666666666636L161.497125,14.66666666666636L161.71662500000002,106.33333333333312L162.05959375,14.66666666666636L162.2105,14.66666666666636L162.38884375,14.66666666666636L162.56718750000002,14.66666666666636L162.80040625,106.33333333333312L162.8964375,106.33333333333312L163.1708125,14.66666666666636L163.308,106.33333333333312L163.472625,106.33333333333312L163.48634375,14.66666666666636L163.91162500000002,14.66666666666636L163.92534375,14.66666666666636L163.9390625,14.66666666666636L164.07625,14.66666666666636L164.25459375,14.66666666666636L164.33690625,14.66666666666636L164.44665625000002,14.66666666666636L164.52896875000002,14.66666666666636L165.48928124999998,14.66666666666636L165.8596875,14.66666666666636L166.28496875,14.66666666666636L166.35356249999998,106.33333333333312L166.5181875,14.66666666666636L167.21784375000001,14.66666666666636L167.24528125,14.66666666666636L167.47850000000003,14.66666666666636L167.57453125,14.66666666666636L167.71171875,14.66666666666636L168.31534375,106.33333333333312L168.46625,14.66666666666636L168.68575,14.66666666666636L169.3168125,106.33333333333312L169.35796875,14.66666666666636L169.37168749999998,106.33333333333312L170.04390625000002,14.66666666666636L170.72984375,14.66666666666636L170.81215625000002,14.66666666666636L170.82587500000002,106.33333333333312L170.9081875,14.66666666666636L171.49809375,14.66666666666636L171.7313125,106.33333333333312L172.18403125,106.33333333333312L172.32121874999999,14.66666666666636L172.48584375000002,14.66666666666636L172.59559375,14.66666666666636L172.801375,106.33333333333312L173.0483125,14.66666666666636L173.30896875000002,14.66666666666636L173.44615625,106.33333333333312L173.47359375,106.33333333333312L174.32415625,106.33333333333312L174.46134375,14.66666666666636L174.557375,14.66666666666636L174.62596875,14.66666666666636L174.84546875,14.66666666666636L174.9415,14.66666666666636L175.11984375,14.66666666666636L175.20215624999997,14.66666666666636L176.1761875,197.9999999999999L176.93071875,14.66666666666636L176.98559375,106.33333333333312L178.0145,106.33333333333312L178.6455625,14.66666666666636L178.65928125,14.66666666666636L178.72787499999998,14.66666666666636L178.837625,106.33333333333312L179.08456249999998,14.66666666666636L179.6333125,14.66666666666636L179.96256250000002,14.66666666666636L180.044875,106.33333333333312L180.05859375,14.66666666666636L180.16834375,197.9999999999999L180.52503125,14.66666666666636L180.6759375,14.66666666666636L181.19725,106.33333333333312L181.25212499999998,14.66666666666636L181.3344375,14.66666666666636L181.43046875,14.66666666666636L181.4441875,106.33333333333312L181.6088125,14.66666666666636L181.85574999999997,14.66666666666636L182.239875,106.33333333333312L182.39078124999997,14.66666666666636L182.8709375,106.33333333333312L182.88465625,106.33333333333312L182.99440625000003,14.66666666666636L183.337375,106.33333333333312L183.74893749999998,197.9999999999999L183.886125,106.33333333333312L183.95471874999998,14.66666666666636L184.42115625,14.66666666666636L184.48975,197.9999999999999L184.5171875,106.33333333333312L184.62693750000003,14.66666666666636L184.66809375,106.33333333333312L184.69553125000002,106.33333333333312L185.0659375,14.66666666666636L185.24428125,14.66666666666636L185.5598125,14.66666666666636L185.57353125,106.33333333333312L185.971375,14.66666666666636L186.1634375,14.66666666666636L186.27318749999998,14.66666666666636L186.72590625,14.66666666666636L187.16490625,14.66666666666636L187.892,14.66666666666636L188.12521875,14.66666666666636L188.44074999999998,14.66666666666636L188.6328125,14.66666666666636L188.715125,14.66666666666636L188.83859375,14.66666666666636L189.09925,106.33333333333312L189.1266875,14.66666666666636L189.55196875,106.33333333333312L189.57940624999998,14.66666666666636L189.63428125000002,14.66666666666636L189.812625,14.66666666666636L189.92237500000002,14.66666666666636L189.96353125000002,14.66666666666636L190.01840625,14.66666666666636L190.23790625,106.33333333333312L190.36137499999998,14.66666666666636L190.4436875,106.33333333333312L190.95128125,14.66666666666636L191.019875,106.33333333333312L191.25309374999998,14.66666666666636L191.44515625,14.66666666666636L191.458875,14.66666666666636L191.6509375,14.66666666666636L191.678375,14.66666666666636L191.74696874999998,14.66666666666636L191.99390625,14.66666666666636L192.227125,106.33333333333312L192.43290625,106.33333333333312L192.84446875,14.66666666666636L192.92678125,14.66666666666636L192.995375,14.66666666666636L193.105125,14.66666666666636L193.91453125,14.66666666666636L194.20262499999998,106.33333333333312L194.36725,106.33333333333312L194.46328125,14.66666666666636L194.51815625,14.66666666666636L194.94343750000002,14.66666666666636L195.28640625,106.33333333333312L195.3275625,14.66666666666636L195.43731250000002,14.66666666666636L195.6568125,14.66666666666636L195.78028125,14.66666666666636L196.20556249999998,14.66666666666636L196.23299999999998,197.9999999999999L196.287875,106.33333333333312L196.397625,14.66666666666636L196.41134375,14.66666666666636L196.79546875000003,14.66666666666636L196.9189375,106.33333333333312L196.98753125,14.66666666666636L197.08356250000003,106.33333333333312L197.1384375,14.66666666666636L197.4676875,106.33333333333312L197.5225625,14.66666666666636L197.54999999999998,14.66666666666636L197.83809374999998,106.33333333333312L197.8518125,14.66666666666636L197.86553124999998,106.33333333333312L198.05759375,14.66666666666636L198.13990625,14.66666666666636L198.22221875,106.33333333333312L198.592625,14.66666666666636L198.6200625,14.66666666666636L198.64749999999998,14.66666666666636L199.22368749999998,14.66666666666636L199.6626875,14.66666666666636L200.30746875,14.66666666666636L200.8699375,14.66666666666636L200.95225000000002,14.66666666666636L201.02084375,14.66666666666636L201.37753125,14.66666666666636L201.77537500000003,106.33333333333312L202.03603124999998,14.66666666666636L202.7905625,14.66666666666636L202.91403125000002,197.9999999999999L203.68228125,106.33333333333312L203.8331875,14.66666666666636L204.42309375,14.66666666666636L204.47796875,106.33333333333312L204.7111875,106.33333333333312L205.013,14.66666666666636L205.39712500000002,197.9999999999999L205.452,14.66666666666636L205.4794375,197.9999999999999L205.52059375,14.66666666666636L205.74009375,14.66666666666636L205.91843749999998,14.66666666666636L206.0281875,14.66666666666636L206.1105,106.33333333333312L206.16537499999998,14.66666666666636L206.275125,14.66666666666636L206.28884375,14.66666666666636L206.42603125,14.66666666666636L206.43974999999998,14.66666666666636L206.9885,14.66666666666636L207.04337500000003,106.33333333333312L208.36037499999998,14.66666666666636L208.6621875,106.33333333333312L208.89540624999998,14.66666666666636L208.99143750000002,14.66666666666636L209.11490625,14.66666666666636L209.2109375,14.66666666666636L209.36184375,14.66666666666636L209.82828125,14.66666666666636L209.95175,106.33333333333312L210.56909374999998,14.66666666666636L211.10412499999998,106.33333333333312L211.5156875,14.66666666666636L212.02328125000003,14.66666666666636L212.9424375,106.33333333333312L213.06590624999998,197.9999999999999L213.079625,106.33333333333312L213.3265625,14.66666666666636L213.4363125,14.66666666666636L213.68325000000002,14.66666666666636L213.847875,14.66666666666636L213.90275,14.66666666666636L214.32803125,14.66666666666636L214.5886875,106.33333333333312L214.616125,14.66666666666636L214.6435625,14.66666666666636L214.65728125,106.33333333333312L214.83562500000002,14.66666666666636L215.4118125,14.66666666666636L215.60387500000002,14.66666666666636L215.87825,14.66666666666636L216.19378125,106.33333333333312L216.49559375,106.33333333333312L216.7836875,106.33333333333312L217.18153125,197.9999999999999L217.42846875,14.66666666666636L217.7714375,14.66666666666636L217.9909375,14.66666666666636L218.347625,14.66666666666636L218.53968749999999,14.66666666666636L219.10215625,14.66666666666636L219.225625,106.33333333333312L219.5823125,14.66666666666636L219.98015625,14.66666666666636L220.1310625,106.33333333333312L220.8993125,14.66666666666636L221.05021875,14.66666666666636L221.091375,14.66666666666636L221.24228125,106.33333333333312L221.32459375,14.66666666666636L221.420625,14.66666666666636L221.66756249999997,14.66666666666636L221.92821874999998,14.66666666666636L221.98309375000002,14.66666666666636L222.079125,14.66666666666636L222.1614375,106.33333333333312L222.3260625,14.66666666666636L222.47696875,14.66666666666636L222.55928125,106.33333333333312L222.573,14.66666666666636L223.0394375,14.66666666666636L223.13546875,106.33333333333312L224.17809375000002,14.66666666666636L224.28784375,106.33333333333312L224.3564375,14.66666666666636L224.45246875,14.66666666666636L224.5210625,14.66666666666636L224.53478125,14.66666666666636L224.64453125,14.66666666666636L224.822875,14.66666666666636L224.97378125,14.66666666666636L224.98749999999998,106.33333333333312L225.05609375,106.33333333333312L225.24815625,14.66666666666636L225.35790625,14.66666666666636L225.371625,14.66666666666636L225.48137499999999,14.66666666666636L226.2770625,106.33333333333312L226.3045,14.66666666666636L226.83953125,14.66666666666636L226.85325,14.66666666666636L227.017875,14.66666666666636L227.41571875,14.66666666666636L228.04678125,106.33333333333312L228.34859375000002,14.66666666666636L229.4049375,106.33333333333312L229.597,14.66666666666636L229.72046875,106.33333333333312L229.92624999999998,14.66666666666636L230.15946875,14.66666666666636L230.26921875000002,106.33333333333312L230.6121875,106.33333333333312L230.73565625,14.66666666666636L231.02374999999998,14.66666666666636L231.17465625,14.66666666666636L231.35299999999998,14.66666666666636L231.40787500000002,14.66666666666636L231.83315625,106.33333333333312L231.90175,14.66666666666636L231.98406250000002,106.33333333333312L232.13496874999998,106.33333333333312L232.18984375,14.66666666666636L232.395625,14.66666666666636L232.58768750000002,14.66666666666636L232.98553124999998,14.66666666666636L233.47940624999998,14.66666666666636L234.11046875,106.33333333333312L234.12418749999998,14.66666666666636L234.17906250000001,197.9999999999999L234.5631875,14.66666666666636L234.7278125,14.66666666666636L234.865,14.66666666666636L234.919875,14.66666666666636L235.1119375,197.9999999999999L235.31771875,14.66666666666636L235.63325,197.9999999999999L235.75671874999998,14.66666666666636L235.94878125,14.66666666666636L236.05853125,14.66666666666636L237.5813125,106.33333333333312L237.8008125,14.66666666666636L237.992875,14.66666666666636L238.1849375,106.33333333333312L238.30840625000002,106.33333333333312L238.70625,106.33333333333312L238.84343750000002,106.33333333333312L238.96690625,14.66666666666636L239.18640625,106.33333333333312L239.26871875,14.66666666666636L239.4745,106.33333333333312L239.5568125,14.66666666666636L239.57053125,106.33333333333312L239.94093750000002,14.66666666666636L239.968375,14.66666666666636L240.078125,106.33333333333312L240.47596875,14.66666666666636L241.5871875,14.66666666666636L241.90271875000002,14.66666666666636L241.9713125,197.9999999999999L242.38287499999998,197.9999999999999L242.821875,106.33333333333312L242.9865,14.66666666666636L243.1236875,106.33333333333312L243.49409375,14.66666666666636L243.645,14.66666666666636L243.96053125,14.66666666666636L244.05656249999998,14.66666666666636L244.09771875,14.66666666666636L244.20746875,14.66666666666636L244.2760625,106.33333333333312L244.38581250000001,14.66666666666636L244.46812500000001,14.66666666666636L244.61903124999998,14.66666666666636L245.19521875,14.66666666666636L245.22265625,106.33333333333312L245.85371875,14.66666666666636L245.8674375,14.66666666666636L246.1966875,106.33333333333312L246.4161875,14.66666666666636L246.663125,14.66666666666636L247.11584374999998,14.66666666666636L247.3765,14.66666666666636L247.5136875,14.66666666666636L247.98012500000002,14.66666666666636L248.37796875,14.66666666666636L248.419125,14.66666666666636L248.54259375,14.66666666666636L248.65234375,14.66666666666636L248.99531249999998,14.66666666666636L249.47546875,197.9999999999999L249.48918749999999,14.66666666666636L250.175125,106.33333333333312L250.21628125,106.33333333333312L250.24371875,14.66666666666636L250.32603125,14.66666666666636L251.23146874999998,14.66666666666636L251.65675000000002,14.66666666666636L251.6841875,14.66666666666636L252.31525,14.66666666666636L252.35640625,106.33333333333312L252.57590625,106.33333333333312L252.58962499999998,106.33333333333312L252.6170625,14.66666666666636L252.79540625,14.66666666666636L253.57737500000002,14.66666666666636L253.61853125,14.66666666666636L254.5376875,14.66666666666636L255.20990625000002,14.66666666666636L255.23734375,14.66666666666636L255.37453125,14.66666666666636L255.8546875,14.66666666666636L255.97815624999998,14.66666666666636L256.101625,14.66666666666636L256.96590625,14.66666666666636L257.02078124999997,14.66666666666636L257.81646875,106.33333333333312L258.132,14.66666666666636L258.3789375,14.66666666666636L258.7905,106.33333333333312L258.8179375,14.66666666666636L258.99628125,197.9999999999999" style="fill: none;" fill="none"></path></g></g></g></g></g></g><g transform="translate(55, 176)" clip-path="url(#clip_1)"><clipPath id="clip_1"><rect width="274" height="24"></rect></clipPath><g><g><line x1="0" y1="0" x2="0" y2="5" style="visibility: inherit;" fill="rgb(0, 0, 0)" stroke="rgb(204, 204, 204)" stroke-width="1px"></line><line x1="27.4375" y1="0" x2="27.4375" y2="5" style="visibility: inherit;" fill="rgb(0, 0, 0)" stroke="rgb(204, 204, 204)" stroke-width="1px"></line><line x1="54.875" y1="0" x2="54.875" y2="5" style="visibility: inherit;" fill="rgb(0, 0, 0)" stroke="rgb(204, 204, 204)" stroke-width="1px"></line><line x1="82.3125" y1="0" x2="82.3125" y2="5" style="visibility: inherit;" fill="rgb(0, 0, 0)" stroke="rgb(204, 204, 204)" stroke-width="1px"></line><line x1="109.75" y1="0" x2="109.75" y2="5" style="visibility: inherit;" fill="rgb(0, 0, 0)" stroke="rgb(204, 204, 204)" stroke-width="1px"></line><line x1="137.1875" y1="0" x2="137.1875" y2="5" style="visibility: inherit;" fill="rgb(0, 0, 0)" stroke="rgb(204, 204, 204)" stroke-width="1px"></line><line x1="164.625" y1="0" x2="164.625" y2="5" style="visibility: inherit;" fill="rgb(0, 0, 0)" stroke="rgb(204, 204, 204)" stroke-width="1px"></line><line x1="192.0625" y1="0" x2="192.0625" y2="5" style="visibility: inherit;" fill="rgb(0, 0, 0)" stroke="rgb(204, 204, 204)" stroke-width="1px"></line><line x1="219.5" y1="0" x2="219.5" y2="5" style="visibility: inherit;" fill="rgb(0, 0, 0)" stroke="rgb(204, 204, 204)" stroke-width="1px"></line><line x1="246.9375" y1="0" x2="246.9375" y2="5" style="visibility: inherit;" fill="rgb(0, 0, 0)" stroke="rgb(204, 204, 204)" stroke-width="1px"></line><line x1="274.375" y1="0" x2="274.375" y2="5" style="visibility: inherit;" fill="rgb(0, 0, 0)" stroke="rgb(204, 204, 204)" stroke-width="1px"></line></g><g transform="translate(0, 8)"><text x="0" y="0" dx="0em" dy="0.95em" style="text-anchor: middle; visibility: hidden; font-family: Roboto, sans-serif; font-size: 12px; font-weight: 200;" fill="rgb(255, 255, 255)" stroke="none" stroke-width="1px">-2k</text><text x="27.4375" y="0" dx="0em" dy="0.95em" style="text-anchor: middle; visibility: inherit; font-family: Roboto, sans-serif; font-size: 12px; font-weight: 200;" fill="rgb(255, 255, 255)" stroke="none" stroke-width="1px">0</text><text x="54.875" y="0" dx="0em" dy="0.95em" style="text-anchor: middle; visibility: inherit; font-family: Roboto, sans-serif; font-size: 12px; font-weight: 200;" fill="rgb(255, 255, 255)" stroke="none" stroke-width="1px">2k</text><text x="82.3125" y="0" dx="0em" dy="0.95em" style="text-anchor: middle; visibility: inherit; font-family: Roboto, sans-serif; font-size: 12px; font-weight: 200;" fill="rgb(255, 255, 255)" stroke="none" stroke-width="1px">4k</text><text x="109.75" y="0" dx="0em" dy="0.95em" style="text-anchor: middle; visibility: inherit; font-family: Roboto, sans-serif; font-size: 12px; font-weight: 200;" fill="rgb(255, 255, 255)" stroke="none" stroke-width="1px">6k</text><text x="137.1875" y="0" dx="0em" dy="0.95em" style="text-anchor: middle; visibility: inherit; font-family: Roboto, sans-serif; font-size: 12px; font-weight: 200;" fill="rgb(255, 255, 255)" stroke="none" stroke-width="1px">8k</text><text x="164.625" y="0" dx="0em" dy="0.95em" style="text-anchor: middle; visibility: inherit; font-family: Roboto, sans-serif; font-size: 12px; font-weight: 200;" fill="rgb(255, 255, 255)" stroke="none" stroke-width="1px">10k</text><text x="192.0625" y="0" dx="0em" dy="0.95em" style="text-anchor: middle; visibility: inherit; font-family: Roboto, sans-serif; font-size: 12px; font-weight: 200;" fill="rgb(255, 255, 255)" stroke="none" stroke-width="1px">12k</text><text x="219.5" y="0" dx="0em" dy="0.95em" style="text-anchor: middle; visibility: inherit; font-family: Roboto, sans-serif; font-size: 12px; font-weight: 200;" fill="rgb(255, 255, 255)" stroke="none" stroke-width="1px">14k</text><text x="246.9375" y="0" dx="0em" dy="0.95em" style="text-anchor: middle; visibility: inherit; font-family: Roboto, sans-serif; font-size: 12px; font-weight: 200;" fill="rgb(255, 255, 255)" stroke="none" stroke-width="1px">16k</text><text x="274.375" y="0" dx="0em" dy="0.95em" style="text-anchor: middle; visibility: hidden; font-family: Roboto, sans-serif; font-size: 12px; font-weight: 200;" fill="rgb(255, 255, 255)" stroke="none" stroke-width="1px">18k</text></g><line x1="0" y1="0" x2="274.375" y2="0" fill="rgb(0, 0, 0)" stroke="rgb(204, 204, 204)" stroke-width="1px"></line></g></g></g></g></svg>