<svg viewBox="0 0 330 200" xmlns="http://www.w3.org/2000/svg"><g><g><g><g><g><line x1="55.625" y1="176" x2="50.625" y2="176" style="visibility: inherit;" fill="rgb(0, 0, 0)" stroke="rgb(204, 204, 204)" stroke-width="1px"></line><line x1="55.625" y1="160" x2="50.625" y2="160" style="visibility: inherit;" fill="rgb(0, 0, 0)" stroke="rgb(204, 204, 204)" stroke-width="1px"></line><line x1="55.625" y1="144" x2="50.625" y2="144" style="visibility: inherit;" fill="rgb(0, 0, 0)" stroke="rgb(204, 204, 204)" stroke-width="1px"></line><line x1="55.625" y1="128" x2="50.625" y2="128" style="visibility: inherit;" fill="rgb(0, 0, 0)" stroke="rgb(204, 204, 204)" stroke-width="1px"></line><line x1="55.625" y1="112" x2="50.625" y2="112" style="visibility: inherit;" fill="rgb(0, 0, 0)" stroke="rgb(204, 204, 204)" stroke-width="1px"></line><line x1="55.625" y1="96" x2="50.625" y2="96" style="visibility: inherit;" fill="rgb(0, 0, 0)" stroke="rgb(204, 204, 204)" stroke-width="1px"></line><line x1="55.625" y1="79.99999999999999" x2="50.625" y2="79.99999999999999" style="visibility: inherit;" fill="rgb(0, 0, 0)" stroke="rgb(204, 204, 204)" stroke-width="1px"></line><line x1="55.625" y1="63.999999999999986" x2="50.625" y2="63.999999999999986" style="visibility: inherit;" fill="rgb(0, 0, 0)" stroke="rgb(204, 204, 204)" stroke-width="1px"></line><line x1="55.625" y1="48" x2="50.625" y2="48" style="visibility: inherit;" fill="rgb(0, 0, 0)" stroke="rgb(204, 204, 204)" stroke-width="1px"></line><line x1="55.625" y1="32.000000000000014" x2="50.625" y2="32.000000000000014" style="visibility: inherit;" fill="rgb(0, 0, 0)" stroke="rgb(204, 204, 204)" stroke-width="1px"></line><line x1="55.625" y1="15.999999999999986" x2="50.625" y2="15.999999999999986" style="visibility: inherit;" fill="rgb(0, 0, 0)" stroke="rgb(204, 204, 204)" stroke-width="1px"></line><line x1="55.625" y1="0" x2="50.625" y2="0" style="visibility: inherit;" fill="rgb(0, 0, 0)" stroke="rgb(204, 204, 204)" stroke-width="1px"></line></g><g transform="translate(45.625, 0)"><text x="0" y="176" dx="0em" dy="0.3em" style="text-anchor: end; visibility: hidden; font-family: Roboto, sans-serif; font-size: 12px; font-weight: 200;" fill="rgb(255, 255, 255)" stroke="none" stroke-width="1px">0</text><text x="0" y="160" dx="0em" dy="0.3em" style="text-anchor: end; visibility: inherit; font-family: Roboto, sans-serif; font-size: 12px; font-weight: 200;" fill="rgb(255, 255, 255)" stroke="none" stroke-width="1px">1e-3</text><text x="0" y="144" dx="0em" dy="0.3em" style="text-anchor: end; visibility: hidden; font-family: Roboto, sans-serif; font-size: 12px; font-weight: 200;" fill="rgb(255, 255, 255)" stroke="none" stroke-width="1px">2e-3</text><text x="0" y="128" dx="0em" dy="0.3em" style="text-anchor: end; visibility: inherit; font-family: Roboto, sans-serif; font-size: 12px; font-weight: 200;" fill="rgb(255, 255, 255)" stroke="none" stroke-width="1px">3e-3</text><text x="0" y="112" dx="0em" dy="0.3em" style="text-anchor: end; visibility: hidden; font-family: Roboto, sans-serif; font-size: 12px; font-weight: 200;" fill="rgb(255, 255, 255)" stroke="none" stroke-width="1px">4e-3</text><text x="0" y="96" dx="0em" dy="0.3em" style="text-anchor: end; visibility: inherit; font-family: Roboto, sans-serif; font-size: 12px; font-weight: 200;" fill="rgb(255, 255, 255)" stroke="none" stroke-width="1px">5e-3</text><text x="0" y="79.99999999999999" dx="0em" dy="0.3em" style="text-anchor: end; visibility: hidden; font-family: Roboto, sans-serif; font-size: 12px; font-weight: 200;" fill="rgb(255, 255, 255)" stroke="none" stroke-width="1px">6e-3</text><text x="0" y="63.999999999999986" dx="0em" dy="0.3em" style="text-anchor: end; visibility: inherit; font-family: Roboto, sans-serif; font-size: 12px; font-weight: 200;" fill="rgb(255, 255, 255)" stroke="none" stroke-width="1px">7e-3</text><text x="0" y="48" dx="0em" dy="0.3em" style="text-anchor: end; visibility: hidden; font-family: Roboto, sans-serif; font-size: 12px; font-weight: 200;" fill="rgb(255, 255, 255)" stroke="none" stroke-width="1px">8e-3</text><text x="0" y="32.000000000000014" dx="0em" dy="0.3em" style="text-anchor: end; visibility: inherit; font-family: Roboto, sans-serif; font-size: 12px; font-weight: 200;" fill="rgb(255, 255, 255)" stroke="none" stroke-width="1px">9e-3</text><text x="0" y="15.999999999999986" dx="0em" dy="0.3em" style="text-anchor: end; visibility: hidden; font-family: Roboto, sans-serif; font-size: 12px; font-weight: 200;" fill="rgb(255, 255, 255)" stroke="none" stroke-width="1px">0.01</text><text x="0" y="0" dx="0em" dy="0.3em" style="text-anchor: end; visibility: hidden; font-family: Roboto, sans-serif; font-size: 12px; font-weight: 200;" fill="rgb(255, 255, 255)" stroke="none" stroke-width="1px">0.011</text></g><line x1="55.625" y1="0" x2="55.625" y2="176" fill="rgb(0, 0, 0)" stroke="rgb(204, 204, 204)" stroke-width="1px"></line></g></g><g transform="translate(55, 0)" clip-path="url(#clip_0)"><clipPath id="clip_0"><rect width="274" height="176"></rect></clipPath><g><g><g><line x1="0" y1="0" x2="0" y2="176" fill="rgb(0, 0, 0)" stroke="rgb(189, 189, 189)" stroke-width="1px" opacity="0.25"></line><line x1="27.4375" y1="0" x2="27.4375" y2="176" fill="rgb(0, 0, 0)" stroke="rgb(189, 189, 189)" stroke-width="1px" opacity="0.25"></line><line x1="54.875" y1="0" x2="54.875" y2="176" fill="rgb(0, 0, 0)" stroke="rgb(189, 189, 189)" stroke-width="1px" opacity="0.25"></line><line x1="82.3125" y1="0" x2="82.3125" y2="176" fill="rgb(0, 0, 0)" stroke="rgb(189, 189, 189)" stroke-width="1px" opacity="0.25"></line><line x1="109.75" y1="0" x2="109.75" y2="176" fill="rgb(0, 0, 0)" stroke="rgb(189, 189, 189)" stroke-width="1px" opacity="0.25"></line><line x1="137.1875" y1="0" x2="137.1875" y2="176" fill="rgb(0, 0, 0)" stroke="rgb(189, 189, 189)" stroke-width="1px" opacity="0.25"></line><line x1="164.625" y1="0" x2="164.625" y2="176" fill="rgb(0, 0, 0)" stroke="rgb(189, 189, 189)" stroke-width="1px" opacity="0.25"></line><line x1="192.0625" y1="0" x2="192.0625" y2="176" fill="rgb(0, 0, 0)" stroke="rgb(189, 189, 189)" stroke-width="1px" opacity="0.25"></line><line x1="219.5" y1="0" x2="219.5" y2="176" fill="rgb(0, 0, 0)" stroke="rgb(189, 189, 189)" stroke-width="1px" opacity="0.25"></line><line x1="246.9375" y1="0" x2="246.9375" y2="176" fill="rgb(0, 0, 0)" stroke="rgb(189, 189, 189)" stroke-width="1px" opacity="0.25"></line><line x1="274.375" y1="0" x2="274.375" y2="176" fill="rgb(0, 0, 0)" stroke="rgb(189, 189, 189)" stroke-width="1px" opacity="0.25"></line></g><g><line x1="0" y1="176" x2="274.375" y2="176" fill="rgb(0, 0, 0)" stroke="rgb(189, 189, 189)" stroke-width="1px" opacity="0.25"></line><line x1="0" y1="160" x2="274.375" y2="160" fill="rgb(0, 0, 0)" stroke="rgb(189, 189, 189)" stroke-width="1px" opacity="0.25"></line><line x1="0" y1="144" x2="274.375" y2="144" fill="rgb(0, 0, 0)" stroke="rgb(189, 189, 189)" stroke-width="1px" opacity="0.25"></line><line x1="0" y1="128" x2="274.375" y2="128" fill="rgb(0, 0, 0)" stroke="rgb(189, 189, 189)" stroke-width="1px" opacity="0.25"></line><line x1="0" y1="112" x2="274.375" y2="112" fill="rgb(0, 0, 0)" stroke="rgb(189, 189, 189)" stroke-width="1px" opacity="0.25"></line><line x1="0" y1="96" x2="274.375" y2="96" fill="rgb(0, 0, 0)" stroke="rgb(189, 189, 189)" stroke-width="1px" opacity="0.25"></line><line x1="0" y1="79.99999999999999" x2="274.375" y2="79.99999999999999" fill="rgb(0, 0, 0)" stroke="rgb(189, 189, 189)" stroke-width="1px" opacity="0.25"></line><line x1="0" y1="63.999999999999986" x2="274.375" y2="63.999999999999986" fill="rgb(0, 0, 0)" stroke="rgb(189, 189, 189)" stroke-width="1px" opacity="0.25"></line><line x1="0" y1="48" x2="274.375" y2="48" fill="rgb(0, 0, 0)" stroke="rgb(189, 189, 189)" stroke-width="1px" opacity="0.25"></line><line x1="0" y1="32.000000000000014" x2="274.375" y2="32.000000000000014" fill="rgb(0, 0, 0)" stroke="rgb(189, 189, 189)" stroke-width="1px" opacity="0.25"></line><line x1="0" y1="15.999999999999986" x2="274.375" y2="15.999999999999986" fill="rgb(0, 0, 0)" stroke="rgb(189, 189, 189)" stroke-width="1px" opacity="0.25"></line><line x1="0" y1="0" x2="274.375" y2="0" fill="rgb(0, 0, 0)" stroke="rgb(189, 189, 189)" stroke-width="1px" opacity="0.25"></line></g></g></g><g><g><line x1="0" y1="176" x2="274.375" y2="176" fill="rgb(0, 0, 0)" stroke="rgb(153, 153, 153)" stroke-width="1.5px"></line></g></g><g><g><line x1="27.4375" y1="0" x2="27.4375" y2="176" fill="rgb(0, 0, 0)" stroke="rgb(153, 153, 153)" stroke-width="1.5px"></line></g></g><g><g><g><g><g><path stroke="rgb(255, 112, 67)" stroke-width="2px" d="M38.1655625,-10.162128037408998L38.247875,0.4738538480874901L38.467375,13.476819490900708L39.19446875,7.950266527541517L39.317937500000006,18.321422028217068L39.592312500000006,21.009079397369646L40.3605625,19.48417506971196L41.14253125,13.93584345196818L41.36203125,27.491227619900254L41.458062500000004,34.74626735180675L41.5129375,34.92093594956253L41.663843750000005,42.42121588536186L41.924499999999995,44.620300583764454L42.130281249999996,50.65187745605987L42.212593749999996,56.10837378047632L42.500687500000005,52.642043747147554L42.65159375,43.813363372218L42.67903125,42.87881003460004L42.87109375,38.63667275121256L42.967124999999996,40.76868743935675L43.22778125,42.705964917620435L43.241499999999995,38.62004360120208L43.406125,21.956898979783L43.5433125,23.8512778567804L43.57075,31.242917968400224L43.6805,38.164089327440195L44.1469375,45.813235753712L44.24296875,53.69290330734574L44.613375,57.249187108477514L44.6408125,66.23060455510638L44.681968749999996,69.69474237412615L44.73684375,71.2087232619497L44.81915625,76.95173042740954L44.87403125,83.7018091849475L45.2444375,88.22338131375281L45.614843750000006,85.63125979288489L45.889218750000005,85.04129022386707L46.30078125,78.3857754362016L46.3145,65.78675434679805L46.87696875,52.42277537005411L47.17878125,56.99768391089613L47.42571875,61.8577773493282L47.4394375,61.04370539288009L47.9333125,64.94371873688604L48.043062500000005,66.30807808796872L48.152812499999996,52.34792372935903L48.19396875,60.732970890497754L48.674125000000004,61.72017744624628L48.715281250000004,62.76050748980031L48.907343749999995,66.94324147223095L48.9485,75.30443696378154L49.01709375,80.08102178412966L49.181718749999995,76.33450773222597L49.33262499999999,81.62680840302713L49.757906250000005,78.66238402837563L49.867656249999996,85.7832934412404L50.347812499999996,76.13093723118581L50.55359375,68.14212825987445L50.786812499999996,71.73281643257063L50.81425,80.16107190129918L50.855406249999994,80.49263532389661L50.91028125,84.61572330225572L51.78828125,84.00192989281472L51.815718749999995,82.81941122137732L51.98034375,88.49334169235775L52.776031249999996,86.65332075837082L52.954375,90.60324440494193L53.05040625,96.63754417599182L53.48940625,66.86205067065998L53.5305625,71.07091333275372L53.612874999999995,77.05284699200266L53.626593750000005,76.2114336392421L53.997,84.11510760855313L54.051875,83.78782637460216L54.12046875,87.4132269002917L54.32625,88.82346882051031L54.339968750000004,86.38762137434628L54.58690625,92.18183409586146L55.83531249999999,77.03996875827875L55.95878125,72.5554760531768L56.09596875,76.78214924420665L56.246874999999996,70.73685924002336L56.50753125,58.44384683835872L57.5364375,66.23697906669226L57.74221875,75.2641415170375L58.15378125,69.69103986069953L58.222375,77.32229674802309L59.25128125,85.11988754572212L59.80003125,92.22676736490456L60.280187500000004,94.38564244964428L60.856375,90.39992288238759L60.92496875,89.49933207739295L61.1033125,89.3153959049655L61.2130625,94.24242783744981L61.25421875,97.68732496336673L61.52859375,93.5135217443148L61.77553125,96.2662709161569L61.96759375,101.93561028880632L61.995031250000004,97.36746946926353L62.1459375,94.47980701692954L62.790718749999996,89.59465971396253L62.8044375,89.35450993622148L63.09253124999999,95.769330694486L63.47665625,88.41666060887945L63.58640625,75.22964957039738L63.69615625,76.7232746377709L64.1214375,81.1192419184199L64.21746875000001,85.91986606571055L64.258625,85.34748182288737L64.38209375,88.00655916739497L64.587875,86.0244421650652L64.71134375,90.33631009646615L64.9445625,86.93928915471685L65.01315625,93.58894410433577L65.02687499999999,88.47023764758656L65.20521875,94.62699142972022L65.2189375,92.4151981136055L65.23265624999999,84.35224981378612L65.36984375,91.93230752750247L65.411,98.61112482282286L65.64421875,91.90143954478408L66.014625,88.76772881446242L66.3164375,85.63491702657976L66.453625,89.58913586507461L66.68684375,80.1996472684995L66.7005625,79.23721231638604L67.50996875,83.82506606612147L67.93525,78.54705402914526L67.97640625,76.96146019566379L68.07243749999999,84.70447336698132L68.22334375,90.58666964620913L69.0601875,87.35300078288184L69.23853125000001,91.38815391246739L69.73240625,96.50108003045534L69.74612499999999,101.97890926472704L70.00678125,97.79679898884723L70.0205,87.08413510150778L70.03421875,93.38025262403052L70.22628125,98.72814381085922L70.24,88.9710057296301L70.25371875,95.87750033813265L70.34975,98.51883164729236L70.58296874999999,96.57475342182659L70.96709375,96.29893824864078L71.22775,102.42043096029781L71.32378125000001,103.50719766916092L71.57071875000001,105.73359374411923L71.611875,107.4589652273903L71.89996875,105.9280355430031L72.22921875,101.09831652208625L72.270375,106.03593272431304L72.7916875,108.25744675045253L73.258125,103.49260345254194L73.47762499999999,104.9738224825013L73.7245625,108.92577447585725L73.87546875,113.44621395124823L74.13612499999999,106.32186822996981L74.3281875,111.0753826385848L74.91809375,103.06117204978571L75.21990625000001,105.64441036187631L75.233625,111.5509195192094L75.32965625,115.728678477354L75.35709375,118.87817568020125L75.453125,122.37324265091888L75.80981249999999,124.67238269585334L76.35856249999999,128.27792870006576L76.39971874999999,121.00961164450018L76.49575,120.26579335158968L76.660375,111.16628794725752L76.825,108.12783875608625L77.00334375,98.90923037348315L77.0170625,105.76937812511417L77.0445,111.53092504949495L77.5658125,116.09711116945624L77.60696875,116.47712999938162L77.63440625,118.1726827475447L77.66184375,115.15648442372394L77.703,118.20167430678565L77.757875,103.102461746783L77.79903125000001,107.77227329457446L78.0596875,108.2166240326701L78.3615,108.08042869974089L78.43009375,113.25653948654117L79.03371874999999,109.05189948314565L79.32181250000001,112.62302754260176L80.22725,117.07179045180959L80.25468749999999,114.8943585708469L80.51534375,119.06089170622795L80.96806249999999,117.17500130396061L81.09153124999999,113.5321469669645L81.14640625,110.08237936777559L81.22871875,115.72576168347615L81.39334375000001,112.12029707878366L81.4345,108.40265747708104L81.8460625,110.85878997269613L81.96953125,114.58469658993766L82.05184374999999,106.36355197934955L82.477125,109.71271151760514L82.5045625,112.75942398721584L82.62803124999999,117.6259823414676L82.77893750000001,119.26803109106893L82.86125,113.1450105701875L82.95728125000001,108.25744376136478L83.464875,107.9113344808238L83.80784375,112.28901679306529L83.89015625,117.35766589483973L83.97246874999999,110.6808376655584L84.013625,109.9253685842984L84.3154375,110.95275962093912L84.79559375,112.97338748937602L84.9465,108.66505702404862L85.42665625000001,109.93856059672385L85.72846875,110.61824041153807L85.83821875000001,113.76697291326025L86.67506250000001,118.6805441124014L86.81225,122.3243832775473L86.89456249999999,117.67181035177302L87.73140624999999,113.11607170369726L88.38990625,118.57102200552941L88.5408125,122.21003212033482L88.70543749999999,125.08186420648305L89.51484375,128.55689546331L89.65203125,126.87188385305558L89.70690625,127.75370039681599L90.049875,126.10407905703744L90.10475000000001,110.77517790429795L90.1870625,101.82098329215756L90.66721875,103.81591319277484L90.708375,107.5227186969042L91.21596875,113.8972579389332L91.35315625000001,101.89815521384773L91.7235625,108.08741845171676L91.77843750000001,106.82798750532575L91.805875,110.97554363757033L91.88818749999999,116.09944261863569L92.01165625,119.70290751834011L92.32718750000001,123.57607365917558L92.42321874999999,127.23892644290407L92.72503124999999,127.94230931321637L92.903375,127.72387956666816L92.95824999999999,117.80870293755366L92.97196875,112.74144660692522L93.38353124999999,114.22583085531993L93.69906250000001,119.50404846654854L93.7265,114.12083877312992L93.76765625,107.1436788188323L93.781375,103.14233332397671L93.891125,106.22898815741067L94.41243750000001,107.65344990196759L94.59078125,108.8866243085528L94.7965625,114.42935628559579L95.05721874999999,115.51991744518034L95.208125,103.83804727506399L95.33159375,108.88989377389939L95.756875,109.4795409056895L95.90778125000001,113.57937962830248L96.34678125,116.27222684043812L96.67603125,100.23957578258054L96.9366875,95.63179104253352L97.11503125,97.04605608634384L97.12875,100.7553853552243L97.2385,98.39719182497566L97.26593749999999,101.62578514438549L97.842125,107.93350312684488L97.897,113.08620066262347L97.951875,118.20691845775008L98.10278124999999,112.94664769733272L98.1439375,118.22195617882304L98.15765625,123.38272950636947L98.59665625,127.83811244148855L98.7475625,131.8920475235925L98.77499999999999,135.40698272508496L98.84359375000001,136.94398072977765L99.02193749999999,140.22319739828916L99.11796875,140.8781754502989L99.2963125,136.81523414814507L99.50209374999999,138.7737237486008L99.6255625,140.56710809225706L99.66671875,143.3714793865073L100.07828125,146.0604211407174L100.40753125,148.33394504269387L100.44868749999999,146.81691745531938L100.47612500000001,139.90992453943832L100.531,139.84965003655384L100.6133125,140.07741155737068L100.99743749999999,141.3999460176834L101.1071875,142.81494809116793L101.42271874999999,144.13382436566835L101.55990625,143.71505829453426L102.13609375,141.1964092859026L102.25956249999999,134.4170513995048L102.32815625,124.50561621614305L102.9455,125.77478253389604L103.01409375,121.65448895882257L103.17871875,116.48397230318804L103.80978125,120.96903137977378L105.18165625,124.13157621725313L106.04593750000001,112.51417646143358L106.4300625,118.08391470089721L106.74559375,119.4800159547493L107.44525,123.7618004334359L107.9116875,119.57400749198096L108.09003125000001,123.53057518516329L109.03662499999999,124.53476591927719L109.14637499999999,121.24206138869744L109.256125,115.0091665138658L109.48934375,117.99509963838958L109.70884375,122.75058120517764L109.87346874999999,120.30396029974966L110.36734375,124.50587488003923L110.47709375000001,119.17779219855387L110.82006249999999,123.78418508955406L110.83378124999999,126.38941566904099L111.27278125000001,130.65671692201238L111.30021875,124.07701787867016L111.57459375,126.66001808510302L111.6431875,126.9662155437417L111.67062499999999,130.68404028218512L111.6980625,130.83126945854593L112.05475,125.33940730298791L112.83671875,129.44465981547742L113.08365625,125.15135959349313L113.57753124999999,126.3336180856428L113.60496875,120.57663860415832L113.865625,125.24656651761009L114.304625,129.6050369800258L114.3320625,126.59240181396561L114.6613125,130.1962329892828L114.67503125,116.0088743283016L114.74362500000001,114.3306210559901L114.81221875,110.91463410755662L115.3198125,114.61541232079864L115.56675,115.84355290780009L115.82740625000001,113.23632627769894L116.04690624999999,117.86108433346082L116.23896875000001,122.31559288329L116.48590625,127.0980168394099L116.5270625,113.90446097360703L116.9935,119.51283455936597L117.03465625,122.34666028662166L117.2404375,125.86689075568592L117.30903124999999,127.92601536726305L117.487375,130.6201566682638L117.55596875,132.8463623741014L117.77546875,126.69479735661237L117.84406249999999,114.87196593256613L117.91265625000001,109.53541296218474L117.96753125,111.90636716629241L118.18703125,115.9747543008194L118.65346875,114.80319751540414L118.98271874999999,113.87046289956204L119.6275,116.26562213762668L119.7646875,110.70855703828396L119.81956249999999,116.78140198106463L120.0390625,122.06880172489491L120.18996875,122.55578948019509L120.51921875,121.47217145823149L120.7524375,123.23518540200033L121.01309375,121.54271414640343L121.3011875,126.42831772167499L121.4109375,125.70118953525139L121.53440625,111.33806461458606L121.75390625,116.68417567788248L122.316375,121.89083394061343L122.35753125000001,119.06511656031742L122.5084375,123.20882509427429L122.60446875000001,127.82182263495469L123.12578124999999,131.6933375663633L123.34528125,125.7235908329852L123.41387499999999,126.74407779160447L123.44131250000001,121.23902108952379L123.7156875,125.78691493959704L123.86659375,129.99842934004795L124.072375,129.82760414057074L124.2095625,128.3668385169485L125.07384375,124.30277457430174L125.11500000000001,128.29421731839366L125.1973125,126.25651762196235L125.718625,130.43380526207815L125.9106875,125.86403198393818L125.938125,124.97196519094081L126.30853125,125.65524966464076L126.55546875,129.93491014975876L126.93959375,132.66102763389262L127.2276875,123.69644614793103L127.694125,127.07007475260414L128.0508125,128.96142616775796L128.1056875,126.45442165947406L128.31146875,126.0599312664549L128.50353125,129.6853562636507L128.75046875,111.52726782947772L129.2855,115.99972107341877L129.43640625,115.83218367991739L129.45012499999999,120.38613023845457L129.83425,125.15436398078296L129.889125,127.92231352856123L129.9165625,131.55980159995283L130.0811875,135.21669032416335L130.4104375,127.9310783705854L130.5750625,128.4961240316996L130.6848125,131.150239368579L130.767125,134.79507771906367L130.91803125,126.88499079743421L131.02778125,129.66850047349394L131.05521875,131.0803784940194L131.60396875,131.61716938736004L131.7274375,132.4886199807104L131.754875,129.95087293162732L131.79603125,132.9101157385837L132.2213125,132.5081270127354L132.303625,136.2391405240915L132.523125,130.44599986102182L133.44228125,125.11625340604185L133.4834375,121.89931015691221L133.840125,119.66383026112074L133.90871875,116.58296355666774L134.3614375,119.382205647785L134.37515625,115.98134173383582L134.73184375,114.52970037546993L134.9650625,118.0821666004113L135.0199375,122.76490363763436L135.1296875,121.8403876777291L135.19828125,124.4144821485102L135.21200000000002,123.42804427923735L135.2943125,126.31705511345248L135.56868749999998,116.26070397556227L135.74703125000002,121.18954063767553L135.82934375,121.65277812165942L136.1723125,122.80749938442938L136.21346875,127.25731325645415L136.9954375,131.57226004674285L137.62650000000002,135.18271450302825L137.81856249999998,134.2345803061291L137.9283125,136.0538047682492L138.24384375,132.64389275293777L138.2575625,136.11704671261816L138.5045,127.68601245771147L138.8611875,130.95756408429412L139.16299999999998,133.9989785628581L139.42365625,133.5665883431194L139.437375,136.65384256848913L139.82150000000001,131.69514281757967L140.15075000000002,131.5835843581703L140.32909375,132.17600564647438L140.68578125000002,134.42396722276857L140.98759375,129.11674183046682L141.06990625,126.19911785813449L141.17965625,126.00427716874131L141.24825,129.51294748249398L141.97534374999998,130.8315337800629L142.01649999999998,124.25120924445812L142.16740625,128.39706963479063L142.35946875000002,132.5144288816709L142.63384375,123.50732257473398L142.82590624999997,127.66647612608607L142.89450000000002,131.41460646665513L143.45696875000002,118.81127452978274L143.92340625,118.85713531192047L144.10175,119.84033141388804L144.33496875,124.76672869119922L144.4584375,121.11992822760831L144.705375,125.90800290412747L144.78768749999998,129.0000069210563L144.91115625,116.16744152930086L145.5010625,121.58264499509369L145.66568750000002,125.85934121701749L145.693125,130.3333141353157L145.78915625,134.19848382962584L146.22815625,136.35036091053047L146.28303125,139.4213542405685L146.70831249999998,125.29381270384076L146.790625,126.60650610186411L147.0375625,130.36095669052978L147.119875,134.10340601219514L147.504,132.8423171312849L147.53143749999998,136.10736896585584L147.83325,138.00024358026232L147.8606875,140.7662166573886L147.997875,143.35255987062612L148.14878125,145.59751181108854L148.47803125000002,139.77761959108503L148.61521875,142.87730222111458L149.05421875,143.95070233194988L149.1228125,137.68178226574327L149.21884375,127.98987787387429L149.36975,129.45461844284824L149.45206249999998,133.33675681729162L149.76759374999997,132.12977175276615L149.82246875,135.83469550708955L150.70046875,136.31367054492256L150.7690625,138.7804270952346L150.9885625,141.72215306634325L151.35896875,143.87483924962237L151.57846875,145.72517088953097L151.70193749999999,138.72576301607586L151.8665625,141.2759012891033L152.51134374999998,134.68817439495135L152.56621875000002,137.91787563251202L152.9915,140.29456946241925L153.5128125,142.0949938922054L153.69115625,143.20826291402517L153.814625,145.24543489539926L153.95181250000002,147.40661967120442L154.0066875,149.1637049338687L154.363375,145.12594887210147L154.89840625,137.24946253830092L155.06303125000002,139.19326674789693L155.09046875,142.29083072036957L155.1865,142.56214518747143L155.39228125,144.25804738761255L155.51575,145.99472949112595L155.63921875,147.9692521754367L155.73525,148.54883417160477L155.83128125,145.1373158425495L155.91359375000002,141.19486447546527L155.9273125,142.43130878693142L156.009625,135.94232207613837L156.07821875,138.54799985955046L156.21540625,139.04107620480553L156.64068749999998,131.36640209701267L156.95621874999998,125.35089727711625L156.98365625000002,129.29983593200396L157.162,132.6178520091601L157.3815,135.96280997856508L157.601,139.15492112440512L157.61471875,141.6495212786136L157.6284375,144.0555735623304L158.2869375,135.99375503618697L158.41040625,139.35786069282153L158.533875,141.99098644642467L158.6710625,143.33082493682298L159.04146875,139.86984581237664L159.15121875,132.679076801112L159.23353125,131.16604782674077L159.41187499999998,134.7231348033252L160.11153125,136.35484124650083L160.12525,122.57492026176622L160.16640625,127.01053276199018L160.39962500000001,131.25675968449931L160.56425000000002,125.5685282896902L160.674,117.47170784034843L161.00325,122.66113782562476L161.0306875,126.93402588267026L161.23646875,131.18244272976128L161.2501875,134.116268998465L161.497125,137.30174123741483L161.71662500000002,131.38305393007957L162.05959375,134.30193427486032L162.2105,137.0951400975836L162.38884375,139.9609926280784L162.56718750000002,142.7472566854126L162.80040625,134.21360877375304L162.8964375,126.21721241969317L163.1708125,130.48140080435678L163.308,128.9947543948615L163.472625,128.41175225166003L163.48634375,132.07260144833492L163.91162500000002,135.25980942324193L163.92534375,136.7746639419382L163.9390625,139.18476051334608L164.07625,140.67429179916442L164.25459375,141.56858241381937L164.33690625,143.34342704554822L164.44665625000002,146.11367055705568L164.52896875000002,148.7042558138643L165.48928124999998,150.89698162779877L165.8596875,148.90076104795043L166.28496875,150.77093950356632L166.35356249999998,142.45874931316607L166.5181875,145.08172609047026L167.21784375000001,147.33046627017197L167.24528125,149.26936014344398L167.47850000000003,151.34557083003313L167.57453125,153.2542255260282L167.71171875,154.65253348389862L168.31534375,150.5171635678971L168.46625,152.3307199867723L168.68575,153.47355298627832L169.3168125,146.64194914486484L169.35796875,148.4460991408212L169.37168749999998,146.48971411756722L170.04390625000002,147.4275535464768L170.72984375,149.89505573638388L170.81215625000002,151.43538927833535L170.82587500000002,145.89725890577105L170.9081875,148.45604366350412L171.49809375,150.4772736213795L171.7313125,147.66555701036975L172.18403125,140.4872299880361L172.32121874999999,143.539457508228L172.48584375000002,143.75590824631016L172.59559375,146.37880555396222L172.801375,141.03672393207202L173.0483125,140.93744120339557L173.30896875000002,143.74106076663736L173.44615625,138.55133764123326L173.47359375,132.31213232435647L174.32415625,127.58209199808117L174.46134375,131.62053027840327L174.557375,134.74528476007464L174.62596875,138.37513649157597L174.84546875,141.49644883334858L174.9415,140.33357059234578L175.11984375,142.14607975728094L175.20215624999997,144.56636389729482L176.1761875,129.6538116750458L176.93071875,132.48994361168198L176.98559375,132.13709597116159L178.0145,126.88482134037118L178.6455625,130.76721835502596L178.65928125,132.7320282373006L178.72787499999998,136.45401009811536L178.837625,129.5263640841267L179.08456249999998,129.75262318495706L179.6333125,133.69173147814388L179.96256250000002,136.97018628227931L180.044875,136.86641341961823L180.05859375,137.4462854610449L180.16834375,129.27153076051766L180.52503125,133.25938872011687L180.6759375,135.11748956601784L181.19725,128.63301880026728L181.25212499999998,130.92455315618102L181.3344375,134.31379586781605L181.43046875,136.3898771344919L181.4441875,129.3940551643937L181.6088125,133.17379395354115L181.85574999999997,136.9393951615392L182.239875,127.23752450830031L182.39078124999997,130.6139424298968L182.8709375,124.28812720669205L182.88465625,121.19603945874778L182.99440625000003,124.48615555224066L183.337375,117.65922368994873L183.74893749999998,108.69701747982074L183.886125,104.05141164858672L183.95471874999998,109.06851643919528L184.42115625,114.33966626092418L184.48975,107.7462048533376L184.5171875,110.56798247422121L184.62693750000003,112.18916379146583L184.66809375,112.96835069417482L184.69553125000002,110.93639613890227L185.0659375,117.01042270916915L185.24428125,120.88226036958291L185.5598125,124.4799850201523L185.57353125,126.01746623658377L185.971375,128.49111701348338L186.1634375,132.20798644914254L186.27318749999998,135.88058759266755L186.72590625,139.0290410011526L187.16490625,140.65785926635704L187.892,142.5608354007212L188.12521875,145.01116340339254L188.44074999999998,147.56242855098907L188.6328125,149.65109319424982L188.715125,150.5892186382683L188.83859375,151.60876649268914L189.09925,145.19536106272145L189.1266875,147.30831006899717L189.55196875,145.50785300494948L189.57940624999998,146.20942272718298L189.63428125000002,148.6696446993996L189.812625,150.393954038684L189.92237500000002,152.6354628639872L189.96353125000002,154.2994847286452L190.01840625,153.81726236987495L190.23790625,145.19053136570798L190.36137499999998,146.21074244466615L190.4436875,142.79308547753564L190.95128125,145.7926404914943L191.019875,144.5790960051138L191.25309374999998,145.39417115368116L191.44515625,147.59064520017208L191.458875,147.46759219720275L191.6509375,145.17856443900746L191.678375,144.42376553099348L191.74696874999998,146.9037813968747L191.99390625,147.68088392263257L192.227125,147.02742100517992L192.43290625,145.224161250243L192.84446875,147.88571327285413L192.92678125,150.40718802644116L192.995375,152.32346409484714L193.105125,154.03683628894362L193.91453125,153.94427469602948L194.20262499999998,149.21330453662625L194.36725,141.0087008986642L194.46328125,143.6123980534467L194.51815625,143.35559542647536L194.94343750000002,146.008728691234L195.28640625,143.64366279985947L195.3275625,145.87731673669614L195.43731250000002,148.27462154457092L195.6568125,150.37155904207336L195.78028125,152.23632974326944L196.20556249999998,154.03142621949615L196.23299999999998,148.88762737663362L196.287875,143.07644351737295L196.397625,145.79136263839837L196.41134375,148.24352160181792L196.79546875000003,150.21349811482006L196.9189375,144.83697042996502L196.98753125,143.3486424696578L197.08356250000003,142.7037012319684L197.1384375,145.40125654035091L197.4676875,138.20843908095313L197.5225625,140.84567737418965L197.54999999999998,143.3582659587731L197.83809374999998,137.5890574239615L197.8518125,139.26441654112247L197.86553124999998,137.0717684496609L198.05759375,140.43212519869218L198.13990625,143.05000345738242L198.22221875,141.95659512130774L198.592625,144.88169815330227L198.6200625,147.2338595034646L198.64749999999998,149.05946578311625L199.22368749999998,150.65538837517235L199.6626875,152.4710611075604L200.30746875,154.1831588718692L200.8699375,155.03932276353834L200.95225000000002,156.68035112010475L201.02084375,158.30952366757722L201.37753125,159.2916388361305L201.77537500000003,154.92269047635645L202.03603124999998,156.4355273995207L202.7905625,157.55591390461382L202.91403125000002,152.28466786680215L203.68228125,143.2927066839122L203.8331875,145.1369555844113L204.42309375,145.9636810976188L204.47796875,145.45608755569938L204.7111875,142.64202601273016L205.013,145.0946388518139L205.39712500000002,132.68905510979806L205.452,133.79742331336064L205.4794375,122.4948195013117L205.52059375,125.23736630762022L205.74009375,128.3426167641676L205.91843749999998,132.6730957083043L206.0281875,136.13952817935973L206.1105,135.18509723024872L206.16537499999998,137.5352340678332L206.275125,139.5654397880993L206.28884375,142.13678715684668L206.42603125,143.84196707211726L206.43974999999998,146.26681682186833L206.9885,148.82923985727888L207.04337500000003,141.46734925396674L208.36037499999998,141.44575070995776L208.6621875,141.04202969961187L208.89540624999998,142.87474389159223L208.99143750000002,142.67276506975477L209.11490625,144.01563983728158L209.2109375,145.4920168271929L209.36184375,147.17728381540803L209.82828125,149.26529429870632L209.95175,141.80639099941658L210.56909374999998,144.2066135223151L211.10412499999998,142.60875500280625L211.5156875,145.1207031924036L212.02328125000003,145.5393176467872L212.9424375,137.94790362641123L213.06590624999998,132.02489017836666L213.079625,132.02602961712256L213.3265625,135.9732565221474L213.4363125,139.4314592968481L213.68325000000002,142.3099460899285L213.847875,145.20047822179956L213.90275,147.29894865378049L214.32803125,148.2269657059697L214.5886875,141.85495020188577L214.616125,143.20327712062914L214.6435625,144.42487068740058L214.65728125,137.75334896237428L214.83562500000002,140.41793380088308L215.4118125,143.2697553913149L215.60387500000002,146.18690768956566L215.87825,147.14093834083758L216.19378125,141.7225428574218L216.49559375,137.80815192040205L216.7836875,134.77449013569714L217.18153125,125.58922682206716L217.42846875,128.31415071786242L217.7714375,131.25216710896012L217.9909375,134.84973487106606L218.347625,138.42283753690998L218.53968749999999,141.06453392330897L219.10215625,144.00050427137995L219.225625,144.0769124816583L219.5823125,146.98162695980608L219.98015625,147.40213072493557L220.1310625,141.9954679327746L220.8993125,144.951899644438L221.05021875,147.53275151107036L221.091375,149.94435788962235L221.24228125,148.66452106034447L221.32459375,148.8322750749799L221.420625,149.25435703300943L221.66756249999997,151.07937530326998L221.92821874999998,153.15331281965814L221.98309375000002,155.01815096024433L222.079125,154.80919540956995L222.1614375,144.78407089443846L222.3260625,147.57782454500506L222.47696875,147.91094545313635L222.55928125,142.91192556430923L222.573,145.39493458950543L223.0394375,147.80970974103235L223.13546875,146.01609884800573L224.17809375000002,147.8383580053037L224.28784375,146.52647400833834L224.3564375,149.02670762669445L224.45246875,150.42461602671207L224.5210625,152.54935308426553L224.53478125,153.74490792867482L224.64453125,155.62213779002673L224.822875,157.10297141158802L224.97378125,157.60263667792876L224.98749999999998,150.13917798063875L225.05609375,144.21024121280064L225.24815625,145.19984330775333L225.35790625,147.80064517669672L225.371625,147.52206635546202L225.48137499999999,149.50946210910246L226.2770625,143.5804076470974L226.3045,146.27584323314215L226.83953125,146.80344737196612L226.85325,149.22057042643112L227.017875,150.0621989589156L227.41571875,152.12719794701528L228.04678125,145.26740983656936L228.34859375000002,147.67683516024255L229.4049375,142.8059918947104L229.597,145.5656251367554L229.72046875,140.89174975067004L229.92624999999998,144.02838864349985L230.15946875,146.96327525588418L230.26921875000002,141.90324639271986L230.6121875,139.76752278796994L230.73565625,141.04865293138172L231.02374999999998,144.0190944695438L231.17465625,146.1908869168727L231.35299999999998,148.65832656218726L231.40787500000002,151.02731100889253L231.83315625,144.39208885585253L231.90175,144.44613501031682L231.98406250000002,138.24502279102342L232.13496874999998,136.59417176609819L232.18984375,139.944821622511L232.395625,143.2195800616207L232.58768750000002,145.47002782811484L232.98553124999998,146.6408962552824L233.47940624999998,148.9032021059911L234.11046875,142.82435509213693L234.12418749999998,145.64935247956709L234.17906250000001,132.4576383071452L234.5631875,135.88752173369912L234.7278125,138.15868813829826L234.865,141.4147609147776L234.919875,143.11683540702003L235.1119375,134.10458453738815L235.31771875,137.5182444132339L235.63325,127.66718942019087L235.75671874999998,131.72948449113437L235.94878125,135.83267946660638L236.05853125,139.49812553893136L237.5813125,133.57067134890502L237.8008125,137.02272443172527L237.992875,138.37333913621774L238.1849375,137.4147891102207L238.30840625000002,131.95223005097859L238.70625,127.082674820558L238.84343750000002,122.24719678700187L238.96690625,126.08806803232625L239.18640625,121.4412378526288L239.26871875,125.98427526562432L239.4745,121.77831220396476L239.5568125,126.44681368486388L239.57053125,119.35226808383737L239.94093750000002,124.44052508118457L239.968375,128.96867868916132L240.078125,129.63511642768327L240.47596875,133.64572570022355L241.5871875,137.06941162910826L241.90271875000002,139.8854760955283L241.9713125,127.30110076342606L242.38287499999998,121.54775617666171L242.821875,123.32163097393922L242.9865,128.05910863443387L243.1236875,128.20941442517196L243.49409375,132.6230681048431L243.645,135.33264757006745L243.96053125,138.696034221137L244.05656249999998,141.92054261635343L244.09771875,144.69465591493784L244.20746875,145.83094873562638L244.2760625,144.9801114428209L244.38581250000001,147.60202488517763L244.46812500000001,150.06412513188423L244.61903124999998,152.1750063587597L245.19521875,152.82949554527144L245.22265625,144.0869570517928L245.85371875,145.0137184689394L245.8674375,146.63127336546347L246.1966875,137.23624304811267L246.4161875,140.26408078041766L246.663125,143.4800734486097L247.11584374999998,146.37242895320776L247.3765,148.66850652282585L247.5136875,150.86045612679555L247.98012500000002,152.95321466433973L248.37796875,153.28254665501092L248.419125,155.0416462233708L248.54259375,156.67288444289971L248.65234375,158.12712166845273L248.99531249999998,159.5877661296529L249.47546875,149.83532026906036L249.48918749999999,151.86143785639902L250.175125,142.1135660760787L250.21628125,141.83778892336966L250.24371875,144.4207791928531L250.32603125,146.72025720498692L251.23146874999998,148.68019682590722L251.65675000000002,149.9823030658772L251.6841875,151.31444642125462L252.31525,153.1717749596735L252.35640625,151.35317689726654L252.57590625,149.02253105237995L252.58962499999998,144.71692813630324L252.6170625,144.15619209881504L252.79540625,146.16852354534757L253.57737500000002,148.82416920929364L253.61853125,149.30911000283848L254.5376875,150.82030315439962L255.20990625000002,153.00535875569489L255.23734375,154.573063920534L255.37453125,156.06911847197685L255.8546875,157.02982102218573L255.97815624999998,157.91754713699197L256.101625,158.94854659813618L256.96590625,160.02904215286352L257.02078124999997,160.6870233595089L257.81646875,150.96174022374L258.132,151.6364374889503L258.3789375,153.55785994718104L258.7905,144.93722530892163L258.8179375,147.23376715949775L258.99628125,130.68761195634247" style="fill: none;" fill="none"></path></g></g></g></g><g opacity="0.2"><g><g><g><path stroke="rgb(255, 112, 67)" stroke-width="2px" d="M30.990656249999997,-276.2903263568878L31.306187499999997,19.05474162101745L31.34734375,-25.46805047988891L32.3488125,-154.36041259765628L32.4585625,8.575291395187376L32.7329375,-91.49649643898013L33.95390625,-82.01536440849307L34.036218749999996,9.676069974899292L34.4340625,-90.00667834281923L34.74959375,-14.32970070838929L34.8181875,14.30688893795013L34.845625,46.348125696182244L35.065125,-31.661837339401252L35.147437499999995,8.911431789398188L35.5864375,45.151785969734185L35.613875,-107.75917673110965L36.17634375,-49.551381707191496L36.258656249999994,103.29145288467407L36.272375000000004,-72.49328398704529L36.464437499999995,3.515691518783566L36.587906249999996,114.59192356467247L36.69765625,66.70931822061537L37.32871875,26.760787725448594L37.918625,-20.06947898864747L38.069531250000004,-73.88682568073273L38.1655625,10.845989942550652L38.247875,95.75368559360503L38.467375,130.01497557759285L39.19446875,-41.60183572769166L39.317937500000006,111.34620106220245L39.592312500000006,45.12438273429869L40.3605625,5.79762554168701L41.14253125,-35.876049637794516L41.36203125,149.2190277427435L41.458062500000004,99.91125112771986L41.5129375,36.49012839794159L41.663843750000005,109.81456285715103L41.924499999999995,64.38325440883635L42.130281249999996,104.8649559020996L42.212593749999996,105.15894091129303L42.500687500000005,21.478177070617676L42.65159375,-35.56887710094454L42.67903125,34.47505927085876L42.87109375,0.4869709014892525L42.967124999999996,59.943460881710045L43.22778125,60.1305375099182L43.241499999999995,1.8674889802932721L43.406125,-127.9352893829346L43.5433125,40.89289999008178L43.57075,97.7403307557106L43.6805,100.43158477544785L44.1469375,114.63262981176376L44.24296875,124.58865812420845L44.613375,89.24710845947266L44.6408125,147.04373946785927L44.681968749999996,100.86517131328583L44.73684375,84.8318720459938L44.81915625,128.62964814901352L44.87403125,144.44284236431122L45.2444375,128.91169732809067L45.614843750000006,62.30517572164535L45.889218750000005,79.73218059539795L46.30078125,18.49240159988403L46.3145,-47.59377145767215L46.87696875,-67.84285509586337L47.17878125,98.16872423887253L47.42571875,105.59561944007874L47.4394375,53.71750986576079L47.9333125,100.04188960790633L48.043062500000005,78.58669853210449L48.152812499999996,-73.28781390190125L48.19396875,136.19534021615982L48.674125000000004,70.60471272468565L48.715281250000004,72.12317085266113L48.907343749999995,104.58673632144928L48.9485,150.5531976222992L49.01709375,123.06925749778749L49.181718749999995,42.6166067123413L49.33262499999999,129.25659215450287L49.757906250000005,51.983029603958116L49.867656249999996,149.87047298252583L50.347812499999996,-10.739042401313803L50.55359375,-3.756239056587244L50.786812499999996,104.04864048957825L50.81425,156.01459054648876L50.855406249999994,83.47667849063872L50.91028125,121.72320580482484L51.78828125,78.47783064842223L51.815718749999995,72.17681503295897L51.98034375,139.5584056377411L52.776031249999996,70.09322291612624L52.954375,126.15238225460052L53.05040625,150.94600154459476L53.48940625,-201.11632251739502L53.5305625,108.95054137706757L53.612874999999995,130.89007607102394L53.626593750000005,68.63873547315596L53.997,155.24798727035522L54.051875,80.8423022031784L54.12046875,120.04176250100134L54.32625,101.51562190055847L54.339968750000004,64.46503198146819L54.58690625,144.32966804504395L55.83531249999999,-59.23662984371185L55.95878125,32.195092201232896L56.09596875,114.8221651315689L56.246874999999996,16.32930433750152L56.50753125,-52.193163871765165L57.5364375,136.3751115500927L57.74221875,156.50854355096817L58.15378125,19.53315830230712L58.222375,146.00356763601303L59.25128125,155.2981669306755L59.80003125,156.1886547356844L60.280187500000004,113.81550973653793L60.856375,54.52846086025238L60.92496875,81.39401769638062L61.1033125,87.65997087955475L61.2130625,138.5857025384903L61.25421875,128.69139111042023L61.52859375,55.94930148124695L61.77553125,121.04100829362869L61.96759375,152.95965506136417L61.995031250000004,56.254209041595445L62.1459375,68.49084889888762L62.790718749999996,45.62834000587463L62.8044375,87.19316220283508L63.09253124999999,153.5027111172676L63.47665625,22.242636442184438L63.58640625,-43.45343911647798L63.69615625,90.1658991575241L64.1214375,120.68294456601141L64.21746875000001,129.1254805624485L64.258625,80.19602394104002L64.38209375,111.93825399875641L64.587875,68.18538999557495L64.71134375,129.14311981201172L64.9445625,56.366101861000054L65.01315625,153.43583656847477L65.02687499999999,42.40188097953796L65.20521875,150.0377739071846L65.2189375,72.50905877351761L65.23265624999999,11.785716772079455L65.36984375,160.15282554924488L65.411,158.7204793691635L65.64421875,31.514273047447187L66.014625,60.564332664012895L66.3164375,57.43961131572723L66.453625,125.1771049797535L66.68684375,-4.305749177932757L66.7005625,70.57529783248901L67.50996875,125.11574944853784L67.93525,31.04494607448578L67.97640625,62.69111579656601L68.07243749999999,154.3915914595127L68.22334375,143.52643585205078L69.0601875,58.24998116493225L69.23853125000001,127.70453190803528L69.73240625,142.51741489768028L69.74612499999999,151.27937218546867L70.00678125,60.15780663490294L70.0205,-9.329839587211627L70.03421875,150.0453101694584L70.22628125,146.85916437208652L70.24,1.1567631959915143L70.25371875,158.0359516888857L70.34975,122.29081338644026L70.58296874999999,79.07804942131042L70.96709375,93.81660169363022L71.22775,157.5138652920723L71.32378125000001,113.28809803724289L71.57071875000001,125.77115839719772L71.611875,122.98730856180191L71.89996875,92.14966839551924L72.22921875,57.630845367908464L72.270375,150.4744785130024L72.7916875,128.25107297301292L73.258125,60.60901379585266L73.47762499999999,118.30479374527931L73.7245625,144.49334239959717L73.87546875,154.13016921281815L74.13612499999999,42.20275676250458L74.3281875,153.85701230168343L74.91809375,30.933276772499077L75.21990625000001,128.89355516433716L75.233625,164.70950192213058L75.32965625,153.32850909233093L75.35709375,147.22365050017834L75.453125,153.82884538173676L75.80981249999999,145.36464309692383L76.35856249999999,160.72784273326397L76.39971874999999,55.59475815296173L76.49575,113.5714287161827L76.660375,29.270739316940293L76.825,80.78179603815079L77.00334375,15.941754937171932L77.0170625,167.51070788502693L77.0445,163.38484736531973L77.5658125,157.19278624653816L77.60696875,119.89729946851732L77.63440625,133.43265748023987L77.66184375,88.01069951057434L77.703,145.60838325321674L77.757875,-32.79045128822327L77.79903125000001,149.80057722330093L78.0596875,112.21578067541122L78.3615,106.8546707034111L78.43009375,159.8415365666151L79.03371874999999,71.21013945341109L79.32181250000001,144.76318007707596L80.22725,157.11065663397312L80.25468749999999,95.2974716424942L80.51534375,156.5596899241209L80.96806249999999,100.20198768377304L81.09153124999999,80.74645793437958L81.14640625,79.03447097539902L81.22871875,166.5162025243044L81.39334375000001,79.67111563682555L81.4345,74.94390106201172L81.8460625,132.96398243308067L81.96953125,148.1178561449051L82.05184374999999,32.373250484466546L82.477125,139.85514736175537L82.5045625,140.17983621358871L82.62803124999999,161.42500752955675L82.77893750000001,134.04646983742714L82.86125,58.03782588243483L82.95728125000001,64.26934248209L83.464875,104.79635095596313L83.80784375,151.68815760314465L83.89015625,162.97550781071186L83.97246874999999,50.58938360214232L84.013625,103.12614685297012L84.3154375,120.19927895069121L84.79559375,131.1590383052826L84.9465,69.89008283615112L85.42665625000001,121.40009275078775L85.72846875,116.73535874485968L85.83821875000001,142.10556542873383L86.67506250000001,162.90268490463495L86.81225,155.1189357638359L86.89456249999999,75.7986540198326L87.73140624999999,72.11442387104034L88.38990625,167.66557472199202L88.5408125,154.9611231535673L88.70543749999999,150.9283529818058L89.51484375,159.83217677474022L89.65203125,111.70677936077118L89.70690625,135.69004929065704L90.049875,111.25748699903488L90.10475000000001,-27.184932470321666L90.1870625,21.233231782913208L90.66721875,121.77028229832649L90.708375,140.8839682340622L91.21596875,171.26811111718416L91.35315625000001,-6.093769311904904L91.7235625,163.79078759253025L91.77843750000001,95.49310898780823L91.805875,148.30354882776737L91.88818749999999,162.2145334482193L92.01165625,152.13409161567688L92.32718750000001,158.434568926692L92.42321874999999,160.20460149645805L92.72503124999999,134.2727551460266L92.903375,125.75801184773445L92.95824999999999,28.572113275527947L92.97196875,67.13613963127136L93.38353124999999,127.58528909087181L93.69906250000001,167.00800696760416L93.7265,65.67195153236389L93.76765625,44.34923923015593L93.781375,67.1302238702774L93.891125,134.00888165831566L94.41243750000001,120.47360560297966L94.59078125,119.98519396781921L94.7965625,164.31394407898188L95.05721874999999,125.33496788144112L95.208125,-1.2987842559814382L95.33159375,154.35651226341724L95.756875,114.78636509180069L95.90778125000001,150.47792813181877L96.34678125,140.50785174965858L96.67603125,-44.05428373813632L96.9366875,54.161728382110596L97.11503125,109.7744414806366L97.12875,134.1393487751484L97.2385,77.17345005273818L97.26593749999999,130.6831250190735L97.842125,164.70296496897936L97.897,159.46047848463058L97.951875,164.29337861388922L98.10278124999999,65.60421085357666L98.1439375,165.69973251223564L98.15765625,169.8296894542873L98.59665625,167.93655885756016L98.7475625,168.37746326252818L98.77499999999999,167.041399538517L98.84359375000001,150.77696277201176L99.02193749999999,169.7361474148929L99.11796875,146.77297791838646L99.2963125,100.24876242876051L99.50209374999999,156.40013015270233L99.6255625,156.7075671851635L99.66671875,168.61082103475928L100.07828125,170.26089692860842L100.40753125,168.79566016048193L100.44868749999999,133.16366916894913L100.47612500000001,77.74698829650879L100.531,139.30717951059341L100.6133125,142.12726524472237L100.99743749999999,153.30275616049767L101.1071875,155.54996675252914L101.42271874999999,156.0037108361721L101.55990625,139.9461636543274L102.13609375,118.52856820821762L102.25956249999999,73.40283042192459L102.32815625,35.302699565887444L102.9455,137.19727939367294L103.01409375,84.57184678316116L103.17871875,69.94932240247725L103.80978125,161.33456306904554L105.18165625,152.59447975456715L106.04593750000001,7.957578659057608L106.4300625,168.21155885607004L106.74559375,132.04492723941803L107.44525,162.2978607416153L107.9116875,81.88387101888657L108.09003125000001,159.13968442380428L109.03662499999999,133.57248252630234L109.14637499999999,91.60772061347961L109.256125,58.91311264038086L109.48934375,144.86849775910378L109.70884375,165.54991530627012L109.87346874999999,98.28437215089798L110.36734375,162.3231061026454L110.47709375000001,71.22504806518555L110.82006249999999,165.2417211085558L110.83378124999999,149.83649088442326L111.27278125000001,169.0624281987548L111.30021875,64.85972648859023L111.57459375,149.9070199429989L111.6431875,129.72199267148972L111.67062499999999,164.14446292817593L111.6980625,132.15633204579353L112.05475,75.91264790296555L112.83671875,166.39193242788315L113.08365625,86.51165759563446L113.57753124999999,136.97394451498985L113.60496875,68.76382327079772L113.865625,167.27591773867607L114.304625,168.8312711417675L114.3320625,99.47868531942366L114.6613125,162.63071356713772L114.67503125,-11.677353620529189L114.74362500000001,99.22634160518645L114.81221875,80.17075157165527L115.3198125,147.92241623997688L115.56675,126.89681819081306L115.82740625000001,89.77128660678864L116.04690624999999,159.4839068353176L116.23896875000001,162.40616983175278L116.48590625,170.139832444489L116.5270625,-4.837541818618771L116.9935,169.98819683119655L117.03465625,147.85109183192253L117.2404375,157.5489649772644L117.30903124999999,146.4581368714571L117.487375,154.8674283772707L117.55596875,152.88221372663975L117.77546875,71.33071219921112L117.84406249999999,8.46648311614989L117.91265625000001,61.506436228752136L117.96753125,133.24495500326157L118.18703125,152.59023851156235L118.65346875,104.25918644666672L118.98271874999999,105.47585135698318L119.6275,137.8220552802086L119.7646875,60.69497114419936L119.81956249999999,171.43700646609068L120.0390625,169.6553994193673L120.18996875,126.93867927789687L120.51921875,111.7196092605591L120.7524375,139.1023108959198L121.01309375,106.31047284603119L121.3011875,170.39874989911914L121.4109375,119.15703585743904L121.53440625,-17.930059671402L121.75390625,164.79917524755L122.316375,168.750758305192L122.35753125000001,93.63366013765335L122.5084375,160.50220189988613L122.60446875000001,169.33880050107837L123.12578124999999,166.5369719490409L123.34528125,71.99587023258209L123.41387499999999,135.928460419178L123.44131250000001,71.69351077079773L123.7156875,166.7179595902562L123.86659375,167.9020589441061L124.072375,128.29017734527588L124.2095625,115.21994790434837L125.07384375,87.72619909048079L125.11500000000001,164.21720201522112L125.1973125,107.91722035408019L125.718625,168.0293940231204L125.9106875,84.73607248067856L125.938125,116.9433640539646L126.30853125,131.80480992794037L126.55546875,168.45185451582074L126.93959375,157.19608499109745L127.2276875,43.01521277427673L127.694125,157.4327321946621L128.0508125,145.98358890414238L128.1056875,103.89138108491896L128.31146875,122.50951772928238L128.50353125,162.31418123841286L128.75046875,-51.89552807807924L129.2855,156.25180026888847L129.43640625,114.32434713840486L129.45012499999999,161.3716492652893L129.83425,168.0684676617384L129.889125,152.8338594585657L129.9165625,164.29719424247742L130.0811875,168.12868884205818L130.4104375,62.36057078838347L130.5750625,133.5815349817276L130.6848125,155.03727740049362L130.767125,167.59862287342548L130.91803125,55.69420850276947L131.02778125,154.72008755803108L131.05521875,143.78728067874908L131.60396875,136.44828742742538L131.7274375,140.33167532086372L131.754875,107.11114948987961L131.79603125,159.54330100119114L132.2213125,128.89022848010063L132.303625,169.81826212629676L132.523125,78.30773389339447L133.44228125,77.14853531122206L133.4834375,92.94682091474532L133.840125,99.54451119899748L133.90871875,88.85516321659088L134.3614375,144.5753844678402L134.37515625,85.37356650829315L134.73184375,101.464928150177L134.9650625,150.05436262488365L135.0199375,164.90953697264194L135.1296875,113.51974403858185L135.19828125,147.58133238554L135.21200000000002,114.55010345578194L135.2943125,152.31815262138844L135.56868749999998,25.753543734550462L135.74703125000002,165.54907059669495L135.82934375,125.82191547751427L136.1723125,133.19999074935913L136.21346875,167.3056381046772L136.9954375,170.40678115934134L137.62650000000002,167.67680460959673L137.81856249999998,125.70137253403664L137.9283125,152.42682492733002L138.24384375,101.95468461513518L138.2575625,167.37543234974146L138.5045,51.80670416355132L138.8611875,160.40152872353792L139.16299999999998,161.37170886993408L139.42365625,129.6750763654709L139.437375,164.43913059681654L139.82150000000001,87.06684505939484L140.15075000000002,130.57955822348595L140.32909375,137.50779724121094L140.68578125000002,154.6556214094162L140.98759375,81.35171329975127L141.06990625,99.9405021071434L141.17965625,124.25071096420288L141.24825,161.09098030626774L141.97534374999998,142.6988104581833L142.01649999999998,65.02828842401505L142.16740625,165.70981314778328L142.35946875000002,169.57066210359335L142.63384375,42.44336581230162L142.82590624999997,165.09885808825493L142.89450000000002,165.1477795317769L143.45696875000002,5.381287097930906L143.92340625,119.26988235116006L144.10175,128.68909633159637L144.33496875,169.1043041869998L144.4584375,88.29872405529022L144.705375,169.00067499279976L144.78768749999998,156.82804307341576L144.91115625,0.6743530035018761L145.5010625,170.31947618722916L145.66568750000002,164.34960721433163L145.693125,170.59907039999962L145.78915625,168.9850110784173L146.22815625,155.71725463867188L146.28303125,167.0602942109108L146.70831249999998,-1.8540611267089986L146.790625,138.4207466840744L147.0375625,164.15101198852062L147.119875,167.78544990718365L147.504,121.49251720309256L147.53143749999998,165.49283547699451L147.83325,155.0361151099205L147.8606875,165.6599743515253L147.997875,166.62964878976345L148.14878125,165.80207927525043L148.47803125000002,87.39858961105347L148.61521875,170.7744458913803L149.05421875,153.61130332946777L149.1228125,81.26150166988371L149.21884375,40.76273834705353L149.36975,142.6372835636139L149.45206249999998,168.27600218728185L149.76759374999997,121.26690617203712L149.82246875,169.179009296L150.70046875,140.62444588541985L150.7690625,160.98123604804277L150.9885625,168.19768680632114L151.35896875,163.24901489913464L151.57846875,162.37815564870834L151.70193749999999,75.7310921549797L151.8665625,164.2271457463503L152.51134374999998,75.39863234758377L152.56621875000002,166.98518677055836L152.9915,161.68481393158436L153.5128125,158.2988137602806L153.69115625,153.22768411040306L153.814625,163.57998272776604L153.95181250000002,166.85728265345097L154.0066875,164.97747229784727L154.363375,108.78614431619646L154.89840625,66.36108553409575L155.06303125000002,156.68750463426113L155.09046875,170.16890647262335L155.1865,145.00397539138794L155.39228125,159.52116718888283L155.51575,161.62486842274666L155.63921875,165.73995633423328L155.73525,153.7650721371174L155.83128125,114.433650881052L155.91359375000002,105.71280217170715L155.9273125,153.559307590127L156.009625,77.54144167900085L156.07821875,161.99909991025925L156.21540625,143.47876331210136L156.64068749999998,62.294335126876824L156.95621874999998,71.21135389804839L156.98365625000002,164.84028382599354L157.162,162.47999670356512L157.3815,166.06743170320988L157.601,167.88392143696547L157.61471875,164.10092266649008L157.6284375,165.71004411578178L158.2869375,63.43738830089569L158.41040625,169.63481160253286L158.533875,165.68911822885275L158.6710625,155.3893713504076L159.04146875,108.72103369235992L159.15121875,67.96215569972992L159.23353125,117.54878705739975L159.41187499999998,166.7369175925851L160.11153125,151.04019923508167L160.12525,-1.4443686008453582L160.16640625,166.93104526400566L160.39962500000001,169.47280198708177L160.56425000000002,74.37444573640823L160.674,44.60032379627227L161.00325,169.3660076931119L161.0306875,165.39001839607954L161.23646875,169.41819435358047L161.2501875,160.5207054167986L161.497125,165.9709913879633L161.71662500000002,78.11486816406249L162.05959375,160.57185737788677L162.2105,162.23399250209332L162.38884375,165.75366540253162L162.56718750000002,167.8236332014203L162.80040625,57.410777568817124L162.8964375,54.2496452331543L163.1708125,168.8590962663293L163.308,115.61493670940399L163.472625,123.16473296284676L163.48634375,165.02024421840906L163.91162500000002,163.94468119740486L163.92534375,150.4083546102047L163.9390625,160.87562965601683L164.07625,154.08007337152958L164.25459375,149.617197945714L164.33690625,159.3170287311077L164.44665625000002,171.04586216062307L164.52896875000002,172.01952312514186L165.48928124999998,170.63151395320892L165.8596875,130.93477582931519L166.28496875,167.60254560410976L166.35356249999998,67.64903759956358L166.5181875,168.68851708620787L167.21784375000001,167.5691278874874L167.24528125,166.71940500289202L167.47850000000003,170.03146700933576L167.57453125,170.43211778998375L167.71171875,167.2373051047325L168.31534375,113.29883432388306L168.46625,168.65272775664926L168.68575,163.7590499818325L169.3168125,85.15751457214355L169.35796875,164.6834491044283L169.37168749999998,128.88224890828133L170.04390625000002,155.86810840666294L170.72984375,172.1025754455477L170.81215625000002,165.29839115589857L170.82587500000002,96.05408555269241L170.9081875,171.48510648310184L171.49809375,168.66834324225783L171.7313125,122.36010751128195L172.18403125,75.88228678703308L172.32121874999999,171.00950518995523L172.48584375000002,145.70396488904953L172.59559375,169.98488132283092L172.801375,92.9579893350601L173.0483125,140.04389664530754L173.30896875000002,168.97363683581352L173.44615625,91.84382951259613L173.47359375,76.1592844724655L174.32415625,85.01172906160355L174.46134375,167.96647480130196L174.557375,162.8680750951171L174.62596875,171.04380207508802L174.84546875,169.588259909302L174.9415,129.86766642332077L175.11984375,158.4586622416973L175.20215624999997,166.34892115741968L176.1761875,-4.55915832519533L176.93071875,158.01513104140759L176.98559375,128.96146720647812L178.0145,79.6143496632576L178.6455625,165.70879148691893L178.65928125,150.41531717777252L178.72787499999998,169.95184684544802L178.837625,67.17754995822906L179.08456249999998,131.78895509243011L179.6333125,169.14370611682534L179.96256250000002,166.47627951949835L180.044875,135.93245765566826L180.05859375,142.6651338338852L180.16834375,55.6987384557724L180.52503125,169.15011035650969L180.6759375,151.84039717912674L181.19725,70.27278190851212L181.25212499999998,151.54836235940456L181.3344375,164.8169802725315L181.43046875,155.0746085345745L181.4441875,66.43165743350981L181.6088125,167.19144305586815L181.85574999999997,170.8298060335219L182.239875,39.920688629150376L182.39078124999997,161.0017037242651L182.8709375,67.35579019784926L182.88465625,93.36724972724913L182.99440625000003,154.09720039367676L183.337375,56.216836929321275L183.74893749999998,28.037161588668816L183.886125,62.240959167480455L183.95471874999998,154.22245955467224L184.42115625,161.78001465648413L184.48975,48.405052185058594L184.5171875,135.96398106217384L184.62693750000003,126.77979564666748L184.66809375,119.98103281855582L184.69553125000002,92.64880514144897L185.0659375,171.67666184157133L185.24428125,155.7287993133068L185.5598125,156.85950687527657L185.57353125,139.85479718446732L185.971375,150.75397400557995L186.1634375,165.65981137007475L186.27318749999998,168.93399788439274L186.72590625,167.3651216775179L187.16490625,155.3172236531973L187.892,159.6876206099987L188.12521875,167.06411542743444L188.44074999999998,170.52381487935781L188.6328125,168.4490749835968L188.715125,159.0323476344347L188.83859375,160.78469718247652L189.09925,87.47471219301222L189.1266875,166.32485112547874L189.55196875,129.3037394285202L189.57940624999998,152.52355022728443L189.63428125000002,170.81164244934916L189.812625,165.91273809224367L189.92237500000002,172.80904229171574L189.96353125000002,169.27568151056767L190.01840625,149.47726114094257L190.23790625,67.5499523282051L190.36137499999998,155.39264215528965L190.4436875,112.03417277336119L190.95128125,172.78863561712205L191.019875,133.65719562768936L191.25309374999998,152.7298474907875L191.44515625,167.35891161859035L191.458875,146.36011517047882L191.6509375,124.57731461524962L191.678375,137.63057535886765L191.74696874999998,169.22392418980598L191.99390625,154.67480665445328L192.227125,141.146254748106L192.43290625,128.99482345581055L192.84446875,171.8396814763546L192.92678125,173.10046080872416L192.995375,169.5699487105012L193.105125,169.4571860358119L193.91453125,153.11122035980225L194.20262499999998,106.63457310199738L194.36725,67.16726815700531L194.46328125,167.04567244648933L194.51815625,141.04437178373337L194.94343750000002,169.88692807406187L195.28640625,122.35806977748871L195.3275625,165.98020216822624L195.43731250000002,169.85036481544375L195.6568125,169.24399651959538L195.78028125,169.01926605403423L196.20556249999998,170.18729450553656L196.23299999999998,102.59343779087065L196.287875,90.77578878402709L196.397625,170.22563472762704L196.41134375,170.31295227259398L196.79546875000003,167.94328673183918L196.9189375,96.44822126626968L196.98753125,129.95369082689285L197.08356250000003,136.8992300927639L197.1384375,169.67925431579351L197.4676875,73.47308194637297L197.5225625,164.58082201331854L197.54999999999998,165.9715632200241L197.83809374999998,85.66618061065672L197.8518125,154.34264859557152L197.86553124999998,117.33793562650679L198.05759375,170.6753359399736L198.13990625,166.61090778559446L198.22221875,132.11592009663582L198.592625,171.20762544125319L198.6200625,168.40331165492535L198.64749999999998,165.48992229998112L199.22368749999998,165.01869170367718L199.6626875,168.8121156990528L200.30746875,169.5920387506485L200.8699375,162.7447977885604L200.95225000000002,171.44960632920265L201.02084375,172.97207659482956L201.37753125,168.13067535310984L201.77537500000003,115.60215523838997L202.03603124999998,170.05105970799923L202.7905625,167.63939245045185L202.91403125000002,104.84345352649689L203.68228125,62.36505603790282L203.8331875,161.73519568890333L204.42309375,153.40421071648598L204.47796875,140.88774567842484L204.7111875,117.31547212600708L205.013,167.1681544035673L205.39712500000002,21.038801431655877L205.452,143.7727371454239L205.4794375,20.771385192871094L205.52059375,149.92028756439686L205.74009375,156.2898708730936L205.91843749999998,171.64740620553493L206.0281875,167.33742041885853L206.1105,126.59521868824959L206.16537499999998,158.6864656060934L206.275125,157.83729127049446L206.28884375,165.27891347557306L206.42603125,159.1885863095522L206.43974999999998,168.09046456962824L206.9885,171.89104717597365L207.04337500000003,75.2103338241577L208.36037499999998,141.2513638138771L208.6621875,137.40854060649872L208.89540624999998,159.36917161941528L208.99143750000002,140.85495567321777L209.11490625,156.10151274502277L209.2109375,158.77940973639488L209.36184375,162.3446867093444L209.82828125,168.05738864839077L209.95175,74.676261305809L210.56909374999998,165.80861622840166L211.10412499999998,128.22802832722664L211.5156875,167.72823689877987L212.02328125000003,149.30684773623943L212.9424375,69.6251774430275L213.06590624999998,78.71776914596558L213.079625,132.0362845659256L213.3265625,171.49829866737127L213.4363125,170.55528426915407L213.68325000000002,168.21632722765207L213.847875,171.2152674086392L213.90275,166.1851825416088L214.32803125,156.57911917567253L214.5886875,84.5068106651306L214.616125,155.33821938931942L214.6435625,155.41921278834343L214.65728125,77.70965343713759L214.83562500000002,164.39919734746218L215.4118125,168.9361497052014L215.60387500000002,172.44127837382257L215.87825,155.7272142022848L216.19378125,92.95698350667952L216.49559375,102.57863348722458L216.7836875,107.4715340733528L217.18153125,42.92185699939727L217.42846875,152.83846578001976L217.7714375,157.6943146288395L217.9909375,167.22784473001957L218.347625,170.58076152950525L218.53968749999999,164.8398014008999L219.10215625,170.42423740401864L219.225625,144.76458637416363L219.5823125,173.1240572631359L219.98015625,151.18666461110115L220.1310625,93.33550280332565L220.8993125,171.55978504940867L221.05021875,170.76041831076145L221.091375,171.64881529659033L221.24228125,137.14598959684372L221.32459375,150.34206120669842L221.420625,153.05309465527534L221.66756249999997,167.50453973561525L221.92821874999998,171.8187504671514L221.98309375000002,171.8016942255199L222.079125,152.92859545350075L222.1614375,54.557950258255005L222.3260625,172.7216074001044L222.47696875,150.90903362631798L222.55928125,97.9207465648651L222.573,167.7420158162713L223.0394375,169.54268610477448L223.13546875,129.87360081076622L224.17809375000002,164.23869042098522L224.28784375,134.71951803565025L224.3564375,171.52881019189954L224.45246875,163.00579162687063L224.5210625,171.67198660224676L224.53478125,164.50490152835846L224.64453125,172.5172065421939L224.822875,170.43047400563955L224.97378125,162.09962407499552L224.98749999999998,82.96804970502853L225.05609375,90.84981030225754L225.24815625,154.10626216232777L225.35790625,171.20786199718714L225.371625,145.01485696434975L225.48137499999999,167.3960238918662L226.2770625,90.21891748905182L226.3045,170.534763507545L226.83953125,151.55188462138176L226.85325,170.9746779166162L227.017875,157.63685575127602L227.41571875,170.71218883991241L228.04678125,83.52931684255599L228.34859375000002,169.36166307330132L229.4049375,98.96840250492095L229.597,170.4023243151605L229.72046875,98.8268712759018L229.92624999999998,172.25813867896795L230.15946875,173.3772547673434L230.26921875000002,96.36298662424088L230.6121875,120.54601034522057L230.73565625,152.57882422208786L231.02374999999998,170.7530683130026L231.17465625,165.73701894283295L231.35299999999998,170.865283370018L231.40787500000002,172.3481710292399L231.83315625,84.67508947849274L231.90175,144.93255040049553L231.98406250000002,82.4350128173828L232.13496874999998,121.73651254177094L232.18984375,170.10067033022642L232.395625,172.69240601360798L232.58768750000002,165.72405772656202L232.98553124999998,157.17871209979057L233.47940624999998,169.2639547623694L234.11046875,88.11473196744919L234.12418749999998,171.07432896643877L234.17906250000001,13.732210755348202L234.5631875,166.7564725726843L234.7278125,158.59918577969074L234.865,170.71941590309143L234.919875,158.43550583720207L235.1119375,52.994326710700975L235.31771875,168.24118329584599L235.63325,39.00769448280333L235.75671874999998,168.2901401296258L235.94878125,172.76143424585462L236.05853125,172.4871401898563L237.5813125,80.22358363866805L237.8008125,168.09120217710733L237.992875,150.52887147665024L238.1849375,128.7878388762474L238.30840625000002,82.78919851779938L238.70625,83.25667774677277L238.84343750000002,78.7278944849968L238.96690625,160.65590924024582L239.18640625,79.61976623535155L239.26871875,166.871611982584L239.4745,83.92464464902878L239.5568125,168.46332701295614L239.57053125,55.50135767459868L239.94093750000002,170.2348380573094L239.968375,169.72206116095185L240.078125,135.63305607438087L240.47596875,169.74120915308595L241.5871875,167.8825849890709L241.90271875000002,165.23005629330873L241.9713125,14.041722774505615L242.38287499999998,69.76765489578247L242.821875,139.28650414943695L242.9865,170.69640757888556L243.1236875,129.5621665418148L243.49409375,172.3459512218833L243.645,159.71886275708675L243.96053125,168.96651408076286L244.05656249999998,170.94111817330122L244.09771875,169.66167560219765L244.20746875,156.0575841218233L244.2760625,137.3225758075714L244.38581250000001,171.19924586638808L244.46812500000001,172.22302735224366L244.61903124999998,171.17293740063906L245.19521875,158.71989822387695L245.22265625,65.40411061048508L245.85371875,153.35457122325897L245.8674375,161.18926743417978L246.1966875,52.68097019195555L246.4161875,167.5146203711629L246.663125,172.4240074623376L247.11584374999998,172.40362849459052L247.3765,169.3332046493888L247.5136875,170.5880025625229L247.98012500000002,171.78804150223732L248.37796875,156.2465345710516L248.419125,170.8735423386097L248.54259375,171.35402841866016L248.65234375,171.21525669842958L248.99531249999998,172.7335662804544L249.47546875,62.06330752372742L249.48918749999999,170.096496142447L250.175125,54.382720053195946L250.21628125,139.35579454898834L250.24371875,167.66769161820412L250.32603125,167.41555931419134L251.23146874999998,166.31965341418982L251.65675000000002,161.70125922560692L251.6841875,163.30373661965132L252.31525,169.88773180544376L252.35640625,134.9857943356037L252.57590625,128.0467184484005L252.58962499999998,105.966501891613L252.6170625,139.1095677614212L252.79540625,164.27950656414032L253.57737500000002,172.72498018480837L253.61853125,153.673577144742L254.5376875,164.42104151844978L255.20990625000002,172.67085916735232L255.23734375,168.6824104040861L255.37453125,169.53360943496227L255.8546875,165.67614397406578L255.97815624999998,165.90708217024803L256.101625,168.2275417484343L256.96590625,169.75350214540958L257.02078124999997,166.60885421931744L257.81646875,63.43419200181961L258.132,157.70871287584305L258.3789375,170.85066207125783L258.7905,67.35151356458663L258.8179375,167.90264381468296L258.99628125,-18.227784872055054" style="fill: none;" fill="none"></path></g></g></g></g></g></g><g transform="translate(55, 176)" clip-path="url(#clip_1)"><clipPath id="clip_1"><rect width="274" height="24"></rect></clipPath><g><g><line x1="0" y1="0" x2="0" y2="5" style="visibility: inherit;" fill="rgb(0, 0, 0)" stroke="rgb(204, 204, 204)" stroke-width="1px"></line><line x1="27.4375" y1="0" x2="27.4375" y2="5" style="visibility: inherit;" fill="rgb(0, 0, 0)" stroke="rgb(204, 204, 204)" stroke-width="1px"></line><line x1="54.875" y1="0" x2="54.875" y2="5" style="visibility: inherit;" fill="rgb(0, 0, 0)" stroke="rgb(204, 204, 204)" stroke-width="1px"></line><line x1="82.3125" y1="0" x2="82.3125" y2="5" style="visibility: inherit;" fill="rgb(0, 0, 0)" stroke="rgb(204, 204, 204)" stroke-width="1px"></line><line x1="109.75" y1="0" x2="109.75" y2="5" style="visibility: inherit;" fill="rgb(0, 0, 0)" stroke="rgb(204, 204, 204)" stroke-width="1px"></line><line x1="137.1875" y1="0" x2="137.1875" y2="5" style="visibility: inherit;" fill="rgb(0, 0, 0)" stroke="rgb(204, 204, 204)" stroke-width="1px"></line><line x1="164.625" y1="0" x2="164.625" y2="5" style="visibility: inherit;" fill="rgb(0, 0, 0)" stroke="rgb(204, 204, 204)" stroke-width="1px"></line><line x1="192.0625" y1="0" x2="192.0625" y2="5" style="visibility: inherit;" fill="rgb(0, 0, 0)" stroke="rgb(204, 204, 204)" stroke-width="1px"></line><line x1="219.5" y1="0" x2="219.5" y2="5" style="visibility: inherit;" fill="rgb(0, 0, 0)" stroke="rgb(204, 204, 204)" stroke-width="1px"></line><line x1="246.9375" y1="0" x2="246.9375" y2="5" style="visibility: inherit;" fill="rgb(0, 0, 0)" stroke="rgb(204, 204, 204)" stroke-width="1px"></line><line x1="274.375" y1="0" x2="274.375" y2="5" style="visibility: inherit;" fill="rgb(0, 0, 0)" stroke="rgb(204, 204, 204)" stroke-width="1px"></line></g><g transform="translate(0, 8)"><text x="0" y="0" dx="0em" dy="0.95em" style="text-anchor: middle; visibility: hidden; font-family: Roboto, sans-serif; font-size: 12px; font-weight: 200;" fill="rgb(255, 255, 255)" stroke="none" stroke-width="1px">-2k</text><text x="27.4375" y="0" dx="0em" dy="0.95em" style="text-anchor: middle; visibility: inherit; font-family: Roboto, sans-serif; font-size: 12px; font-weight: 200;" fill="rgb(255, 255, 255)" stroke="none" stroke-width="1px">0</text><text x="54.875" y="0" dx="0em" dy="0.95em" style="text-anchor: middle; visibility: inherit; font-family: Roboto, sans-serif; font-size: 12px; font-weight: 200;" fill="rgb(255, 255, 255)" stroke="none" stroke-width="1px">2k</text><text x="82.3125" y="0" dx="0em" dy="0.95em" style="text-anchor: middle; visibility: inherit; font-family: Roboto, sans-serif; font-size: 12px; font-weight: 200;" fill="rgb(255, 255, 255)" stroke="none" stroke-width="1px">4k</text><text x="109.75" y="0" dx="0em" dy="0.95em" style="text-anchor: middle; visibility: inherit; font-family: Roboto, sans-serif; font-size: 12px; font-weight: 200;" fill="rgb(255, 255, 255)" stroke="none" stroke-width="1px">6k</text><text x="137.1875" y="0" dx="0em" dy="0.95em" style="text-anchor: middle; visibility: inherit; font-family: Roboto, sans-serif; font-size: 12px; font-weight: 200;" fill="rgb(255, 255, 255)" stroke="none" stroke-width="1px">8k</text><text x="164.625" y="0" dx="0em" dy="0.95em" style="text-anchor: middle; visibility: inherit; font-family: Roboto, sans-serif; font-size: 12px; font-weight: 200;" fill="rgb(255, 255, 255)" stroke="none" stroke-width="1px">10k</text><text x="192.0625" y="0" dx="0em" dy="0.95em" style="text-anchor: middle; visibility: inherit; font-family: Roboto, sans-serif; font-size: 12px; font-weight: 200;" fill="rgb(255, 255, 255)" stroke="none" stroke-width="1px">12k</text><text x="219.5" y="0" dx="0em" dy="0.95em" style="text-anchor: middle; visibility: inherit; font-family: Roboto, sans-serif; font-size: 12px; font-weight: 200;" fill="rgb(255, 255, 255)" stroke="none" stroke-width="1px">14k</text><text x="246.9375" y="0" dx="0em" dy="0.95em" style="text-anchor: middle; visibility: inherit; font-family: Roboto, sans-serif; font-size: 12px; font-weight: 200;" fill="rgb(255, 255, 255)" stroke="none" stroke-width="1px">16k</text><text x="274.375" y="0" dx="0em" dy="0.95em" style="text-anchor: middle; visibility: hidden; font-family: Roboto, sans-serif; font-size: 12px; font-weight: 200;" fill="rgb(255, 255, 255)" stroke="none" stroke-width="1px">18k</text></g><line x1="0" y1="0" x2="274.375" y2="0" fill="rgb(0, 0, 0)" stroke="rgb(204, 204, 204)" stroke-width="1px"></line></g></g></g></g></svg>